<?xml version="1.0" encoding="utf-8"?>
<!-- Generator: Adobe Illustrator 24.0.1, SVG Export Plug-In . SVG Version: 6.00 Build 0)  -->
<svg version="1.1" id="Layer_1" xmlns="http://www.w3.org/2000/svg" xmlns:xlink="http://www.w3.org/1999/xlink" x="0px" y="0px"
	 viewBox="0 0 403 173" style="enable-background:new 0 0 403 173;" xml:space="preserve">
<style type="text/css">
	.st0{display:none;fill:#969696;}
	.st1{fill:#496E80;}
	.st2{fill:#6D92A3;}
	.st3{fill:#A6C5DD;}
	.st4{fill:#7F2030;}
</style>
<g id="logo2">
	<path class="st0" d="M33.4,28.6c0.1,5.9,0.3,12.8,0.5,20.1c0.2,7.4,0.4,15.2,0.6,23.1c0.5,15.7,1,31.4,1.3,43.2
		c0.1,2.9,0.2,5.6,0.4,8c0.2,2.4,0.3,4.5,0.4,6.2c0.3,3.4,0.5,5.4,0.5,5.4s0.2-2,0.5-5.4c0.1-1.7,0.3-3.8,0.4-6.2
		c0.1-2.4,0.2-5.1,0.4-8c0.4-11.8,0.8-27.5,1.3-43.2c0.2-7.9,0.4-15.7,0.6-23.1c0.2-7.4,0.4-14.2,0.5-20.1
		c0.3-11.8,0.4-19.6,0.4-19.6c0-0.1,0-0.1,0-0.2c-0.1-2.5-1.9-4.4-4.2-4.4c-2.3,0.1-4.1,2.1-4,4.6C33,8.9,33.2,16.8,33.4,28.6z
		 M37.1,7.5c0.9,0,2-0.1,2,6.5c0,6.7-0.9,17.6-2,17.6c-1.1,0-2-10.9-2-17.6C35.2,7.4,36.3,7.5,37.1,7.5z"/>
	<rect x="39" y="11" class="st0" width="2.1" height="7.1"/>
	<path class="st1" d="M37.1,7.5c0.9,0,2-0.1,2,6.5c0,6.7-0.9,17.6-2,17.6c-1.1,0-2-10.9-2-17.6C35.2,7.4,36.3,7.5,37.1,7.5z M37,4.3
		C37.1,4.3,37.1,4.4,37,4.3l0.1,3.2c-0.9,0-2-0.1-2,6.5c0,0.5,0,1,0,1.5c0,0.5,0,1.1,0,1.7c0.2,6.5,1,14.4,1.9,14.4v48.8
		c-0.8-0.5-1.6-1-2.4-1.5c0,1.1,0.1,2.1,0.1,3.2c0.8,0.5,1.6,1,2.3,1.6c0.1,0.1,0.2,0.2,0.4,0.3c0.6,0.5,0.7,0.7,1.1,1
		c0.3,0.2,0.5,0.3,0.7,0.4c0-1.1,0.1-2.1,0.1-3.2c0.1-3.4,0.2-6.9,0.3-10.3c0.2-7.9,0.4-15.7,0.6-23.1l0.5-20.1
		c0.1-5.3,0.2-9.8,0.3-13.1c0-0.5,0-1,0-1.5c0.1-3.2,0.1-5.1,0.1-5.1V8.7C41.2,6.2,39.3,4.3,37,4.3z M36,119.4
		c0,1.1,0.1,2.1,0.2,3.1c0,0.2,0,0.4,0,0.5c0.2,2.4,0.3,4.5,0.4,6.2c0.3,3.4,0.5,5.4,0.5,5.4s0.2-2,0.5-5.4c0.1-1.4,0.2-3,0.3-4.9
		c0-0.4,0.1-0.9,0.1-1.3c0-0.4,0-0.8,0.1-1.3c-0.3-0.4-0.7-0.7-1-1.1C36.8,120.2,36.4,119.8,36,119.4z"/>
	<path class="st1" d="M39.3,85.3l0,0.7c0,1.4-0.1,2.7-0.1,4c-0.3,9.2-0.6,17.8-0.8,24.9c-0.1,2.4-0.2,4.7-0.3,6.8
		c-0.3-0.4-0.7-0.7-1-1.1v-37c0.1,0.1,0.2,0.2,0.4,0.3c0.6,0.5,0.7,0.7,1.1,1C38.9,85.1,39.1,85.3,39.3,85.3z"/>
	<path class="st2" d="M35.2,14.1c0,0.5,0,1,0,1.5c0,0.5,0,1.1,0,1.7c0.2,6.5,1,14.4,1.9,14.4v48.8c-0.8-0.5-1.6-1-2.4-1.5
		c-0.1-2.4-0.1-4.8-0.2-7.2c-0.2-7.9-0.4-15.7-0.6-23.1c-0.2-7.4-0.3-14.2-0.5-20.1c-0.1-4-0.2-7.5-0.2-10.4c0-0.6,0-1.2,0-1.8
		C33.1,11.7,33,8.9,33,8.9c-0.1-2.5,1.8-4.5,4-4.6c0,0,0.1,0,0.1,0v3.2C36.3,7.5,35.2,7.4,35.2,14.1z"/>
	<path class="st2" d="M37.1,83.7v37c-0.4-0.4-0.7-0.8-1.1-1.3c-0.1-1.4-0.1-2.9-0.2-4.4c-0.2-6.1-0.4-13.2-0.6-20.9
		c0-1.2-0.1-2.4-0.1-3.6c-0.1-2.7-0.2-5.5-0.3-8.4C35.6,82.6,36.4,83.1,37.1,83.7z"/>
	<path class="st3" d="M37.1,80.5v3.2c-0.7-0.5-1.5-1-2.3-1.6c0-1-0.1-2.1-0.1-3.2C35.5,79.4,36.3,79.9,37.1,80.5z"/>
	<path class="st2" d="M36,119.4c0.4,0.4,0.7,0.9,1.1,1.3v14c0,0-0.2-2-0.5-5.4c-0.1-1.7-0.2-3.8-0.4-6.2c0-0.2,0-0.3,0-0.5
		C36.1,121.5,36.1,120.5,36,119.4z"/>
	<path class="st4" d="M35.2,17.3c0-0.6,0-1.1,0-1.7c1.9-0.7,3.9-1.2,6-1.6c1.2-0.2,2.5-0.4,3.7-0.6c4.7-0.5,9.3-0.5,14-0.4
		c2.3,0,4.6,0,6.9-0.4c2.3-0.4,4.5-1.1,6.5-2.3c-1.9,1.3-4.1,2.2-6.4,2.7c-2.3,0.5-4.6,0.7-7,0.7c-4.6,0.1-9.3,0.2-13.8,0.9
		c-1.3,0.2-2.6,0.4-3.9,0.7C39.1,15.9,37.1,16.5,35.2,17.3z"/>
	<path class="st4" d="M41.6,85.6c0,0.3-0.1,0.5-0.1,0.8c-0.1,0.2-0.2,0.5-0.2,0.6c-0.1,0.3-0.3,0.6-0.5,0.9
		c-0.3,0.6-0.7,1.1-1.1,1.6c-0.2,0.2-0.3,0.4-0.5,0.6c0-1.3,0.1-2.7,0.1-4c0.3-0.2,0.5-0.2,0.5-0.4c0-0.1-0.2-0.2-0.5-0.3
		c-0.2-0.1-0.4-0.2-0.7-0.4c-0.4-0.3-0.5-0.5-1.1-1c-0.1-0.1-0.2-0.2-0.4-0.3c-0.7-0.5-1.5-1-2.3-1.6c-1-0.6-2-1.3-3-1.9
		c-2-1.2-3.9-2.5-5.8-3.9c-3.8-2.8-7.3-6.2-10-10.2c-2.7-4-4.3-8.7-4.8-13.5c-0.2-2.4-0.2-4.8,0.1-7.2c0.3-2.4,0.8-4.7,1.7-7
		c0.8-2.2,1.8-4.5,3-6.5c0.6-1,1.3-2,1.9-3c0.7-0.9,1.4-1.9,2.2-2.8c1.5-1.8,3.3-3.4,5.1-4.9c1.9-1.4,3.9-2.8,6-3.8
		c0.6-0.3,1.3-0.6,1.9-0.9c0,0.6,0,1.2,0,1.8c-0.4,0.2-0.8,0.4-1.2,0.6c-2,1-3.9,2.3-5.6,3.7c-1.7,1.5-3.4,3-4.8,4.8
		c-0.8,0.8-1.4,1.8-2.1,2.7c-0.6,1-1.2,1.9-1.8,2.9c-1.1,1.9-2,4-2.7,6.1c-0.7,2.1-1.2,4.3-1.4,6.5c-0.2,2.2-0.2,4.5,0,6.7
		c0.6,4.4,2,8.7,4.5,12.4c2.4,3.7,5.8,6.8,9.4,9.5c1.8,1.4,3.7,2.6,5.7,3.9c0.5,0.3,1,0.6,1.5,1c0.8,0.5,1.6,1,2.4,1.5
		c0.7,0.4,1.3,0.9,2,1.4c0.1,0.1,0.2,0.2,0.3,0.2c0.4,0.3,0.8,0.7,1.2,1.1C41,83.8,41.6,84.5,41.6,85.6z"/>
	<path class="st4" d="M79.4,149.2c-8.8-2.8-17.3-6.9-25.2-11.8c-3.9-2.5-7.7-5.3-11.2-8.4c-1.7-1.5-3.4-3-5-4.7
		c-0.3-0.3-0.6-0.6-0.8-0.8c-0.3-0.3-0.6-0.7-0.9-1c-1.1-1.1-2.1-2.3-3.1-3.5c-1.5-1.8-2.9-3.8-4-5.9c-1.1-2.1-2-4.5-2.1-7
		c-0.1-1.3,0-2.6,0.3-3.8c0.3-1.3,0.8-2.4,1.4-3.5c1.2-2.2,2.7-4,4.2-5.8c0.7-0.8,1.4-1.6,2.2-2.3c0,1.2,0.1,2.4,0.1,3.6
		c-0.1,0.1-0.3,0.3-0.4,0.4c-3,3.4-5.9,7.1-5.5,11.3c0.1,2.1,0.8,4.2,1.8,6.2c1,2,2.2,3.9,3.6,5.7c0.4,0.6,0.9,1.1,1.3,1.7
		c0.4,0.4,0.7,0.9,1.1,1.3c0.3,0.4,0.6,0.7,1,1.1c1.9,2.1,3.9,4.1,5.9,6c3.4,3.1,7,6,10.8,8.6C62.4,141.6,70.7,145.8,79.4,149.2z"/>
</g>
<g>
	<path class="st4" d="M111.6,129.8c-2.4,0-4.4-1-6.1-3.1c-1.7-2.1-2.5-4.6-2.5-7.5c0-0.5,0-1.2,0-2.1c0-0.9,0.1-1.8,0.1-2.9
		c-2.3,4.3-5.1,7.8-8.4,10.5c-3.3,2.7-7.3,4.1-11.9,4.1c-4.3,0-7.6-1.3-10-3.8c-2.4-2.5-3.6-6.1-3.6-10.7c0-2.8,0.4-5.8,1.1-9.1
		c0.8-3.3,1.7-6.7,2.9-10.2c1.1-3.5,2.3-7,3.4-10.5c1.1-3.5,2.1-7,2.9-10.4c0.8-3.4,1.1-6.7,1.1-9.7c0-5.7-1.7-8.6-5.1-8.6
		c-1.7,0-3.2,0.5-4.4,1.6c-1.2,1.1-2.2,2.4-3,4.1c-0.8,1.6-1.4,3.3-1.8,4.9c-0.4,1.7-0.6,3.1-0.6,4.2c0,1,0.1,2,0.4,3.1
		c0.3,1.1,0.5,2.1,0.9,3c-3.1,0-5.2-0.7-6.5-2.1c-1.3-1.4-2-3.1-2-5.2c0-2,0.5-4,1.4-6c1-2,2.3-3.9,4.1-5.7c1.7-1.7,3.8-3.1,6.1-4.2
		c2.4-1,4.9-1.6,7.6-1.6c3.9,0,6.7,1.1,8.4,3.3c1.7,2.2,2.6,5.2,2.6,9c0,2.4-0.3,5-0.9,7.8c-0.6,2.9-1.3,5.8-2.2,8.9
		c-0.9,3-1.8,6-2.7,8.9c-1.6,5.1-2.9,9.6-3.9,13.4c-1,3.8-1.5,7.2-1.5,10.2c0,2.9,0.6,5.4,1.8,7.4c1.2,2,3.2,3,6.1,3
		c2.6,0,5-0.8,7.1-2.4c2.2-1.6,4.1-3.7,5.7-6.3c1.6-2.6,3-5.3,4.1-8.1c1.1-2.9,2-5.5,2.6-8c0.9-3.7,1.9-7.8,3-12
		c1.1-4.3,2.2-8.5,3.4-12.6c1.2-4.1,2.4-7.9,3.6-11.2c1.2-3.4,2.4-6.1,3.6-8.1c1.2-2,2.3-3,3.5-3c0.6,0,1.5,0.3,2.6,1
		c1.1,0.7,2.3,1.6,3.5,2.7c-0.6,0.4-1.4,1.8-2.5,4c-1.1,2.2-2.3,5.1-3.6,8.6c-1.3,3.5-2.7,7.3-4.1,11.5c-1.4,4.2-2.6,8.5-3.7,12.9
		c-1.1,4.4-2,8.7-2.7,12.7c-0.7,4.1-1,7.7-1,10.9c0,3.9,0.7,6.5,2,7.8c1.3,1.3,3.7,1.9,7,1.9c-0.7,1.2-1.9,2.2-3.5,2.9
		C114.5,129.4,113,129.8,111.6,129.8z"/>
	<path class="st4" d="M157,122.2c-2.5,0-4.4-0.6-5.7-1.9c-1.3-1.2-2-2.8-2-4.7c0-1.3,0.2-2.6,0.7-4.1c0.4-1.4,0.9-2.9,1.3-4.3
		c0.4-1.5,0.7-2.9,0.7-4.2c0-1.4-0.3-2.4-1-2.9c-0.7-0.5-1.4-0.8-2.3-0.8c-1.9,0-3.9,0.8-5.9,2.3c-2,1.6-3.9,3.5-5.8,5.9
		c-1.9,2.4-3.6,4.8-5.3,7.3c-1.7,2.5-3.1,4.8-4.3,6.9c-1.2,0-2.4-0.2-3.4-0.6c-1.1-0.4-2-1.1-2.8-2.1c0.1-0.3,0.4-1.3,1.1-2.9
		c0.7-1.6,1.4-3.6,2.2-5.8c0.8-2.3,1.6-4.6,2.2-7.1c0.6-2.5,1-4.7,1-6.8c0.4-0.5,1.1-1,2-1.5c0.9-0.5,1.9-0.8,2.9-0.8
		c2.2,0,3.3,1,3.3,2.9c0,0.8-0.1,1.9-0.4,3.4c-0.3,1.5-0.7,3.2-1.2,5.1c1.7-2.2,3.5-4.3,5.4-6.3c2-2,4-3.6,6.1-4.8
		c2.1-1.2,4.3-1.9,6.4-1.9c2.7,0,4.7,0.9,6.1,2.8c1.3,1.8,2,3.9,2,6.1c0,1.9-0.3,3.7-1,5.3c-0.6,1.7-1.3,3.2-1.9,4.7
		c-0.6,1.5-0.9,2.9-0.9,4.3c0,1,0.2,1.7,0.7,2.1c0.5,0.4,1,0.6,1.6,0.6c1.5,0,3.1-0.7,4.8-2.2c1.7-1.5,3.2-3.3,4.7-5.6
		c1.5-2.3,2.8-4.5,4-6.8l1.6,1.3c-1.3,3.1-2.8,6-4.5,8.5c-1.7,2.6-3.6,4.6-5.6,6.2C161.8,121.5,159.5,122.2,157,122.2z"/>
	<path class="st4" d="M177.6,123.2c-2.8,0-4.9-0.8-6.3-2.5c-1.4-1.7-2.1-3.7-2.1-6c0-1.5,0.3-3.3,0.8-5.5c0.5-2.2,1.2-4.6,2.1-7
		c0.9-2.4,2-4.7,3.2-6.9c1.2-2.2,2.5-3.9,3.9-5.3c1.4-1.4,2.8-2,4.2-2c0.8,0,1.4,0.2,2,0.7c0.6,0.5,0.9,1.2,0.9,2
		c0,0.8-0.5,2.1-1.5,3.7c-1,1.7-2.1,3.6-3.4,5.7c-1.3,2.2-2.4,4.4-3.4,6.7c-1,2.3-1.5,4.5-1.5,6.6c0,2,0.4,3.4,1.1,4.1
		c0.7,0.7,1.8,1,3.2,1c2.2,0,4.5-1.1,7.1-3.2c2.5-2.2,5.2-5.9,7.9-11.3l1.4,1.5c-2.2,5.6-5.1,9.9-8.5,13.1
		C185.2,121.6,181.5,123.2,177.6,123.2z M188.8,80.2c-1.2,0-2.3-0.3-3.3-0.9c-1-0.6-1.5-1.5-1.5-2.8c0-1.5,0.8-2.8,2.5-3.9
		c1.7-1.1,3.4-1.6,5.1-1.6c1.1,0,2.1,0.3,2.9,0.8c0.8,0.5,1.2,1.4,1.2,2.8c0,1.3-0.7,2.6-2.2,3.9C192.1,79.6,190.5,80.2,188.8,80.2z
		"/>
	<path class="st4" d="M217,128.6c-4.8,0-8.8-1.1-11.9-3.4c-3.1-2.3-5.3-5.2-6.8-8.9c-1.4-3.6-2.1-7.4-2.1-11.2
		c0-5,0.8-10.1,2.3-15.1s3.6-9.9,6.3-14.4c2.7-4.6,5.8-8.6,9.2-12.2c3.4-3.6,7.1-6.4,11-8.4c3.9-2.1,7.8-3.1,11.7-3.1
		c2.8,0,5.1,0.7,7.1,2c1.9,1.3,2.9,3.5,2.9,6.7c0,1.9-0.3,4-1,6.4c-0.7,2.4-1.6,4.6-2.7,6.8c-1.1,2.2-2.4,4-3.8,5.4
		c-1.4,1.4-2.8,2.1-4.3,2.1c-0.6,0-1.3-0.2-2-0.7c-0.7-0.4-1.3-1.2-1.9-2.3c1-1.1,2-2.4,3.2-4c1.2-1.6,2.3-3.2,3.4-5
		c1.1-1.7,2-3.5,2.7-5.1c0.7-1.7,1-3.2,1-4.4c0-1.1-0.3-2-1-2.7c-0.6-0.7-1.7-1-3.3-1c-2.8,0-5.7,1-8.6,3.1c-3,2.1-5.8,4.9-8.5,8.4
		c-2.7,3.5-5.2,7.5-7.4,11.8c-2.2,4.4-3.9,8.8-5.2,13.4c-1.3,4.6-1.9,9-1.9,13.1c0,3,0.5,6,1.4,8.7c0.9,2.8,2.4,5,4.4,6.8
		c2,1.7,4.7,2.6,8,2.6c3.4,0,6.8-1,10.2-2.9c3.4-1.9,6.5-4.4,9.3-7.5c2.8-3.1,5.1-6.4,6.8-10l2.5,1.6c-2.2,4.3-4.9,8.2-8,11.7
		c-3.1,3.5-6.6,6.4-10.5,8.5C225.7,127.6,221.5,128.6,217,128.6z"/>
	<path class="st4" d="M261.3,122.8c-2.4,0-4.3-0.6-5.7-1.9c-1.5-1.2-2.2-2.9-2.2-5c0-1.8,0.4-3.7,1.3-5.7c0.9-2,1.8-4,2.7-6
		c0.9-2,1.4-3.7,1.4-5.2c0-1.5-0.5-2.7-1.4-3.7c-1-1-2.1-1.8-3.3-2.4c-1.4,3.5-3,6.9-4.7,10.2c-1.7,3.3-3.2,5.8-4.2,7.7l-1.4-2.8
		c0.9-1.7,2.1-4,3.5-7.1c1.5-3.1,2.9-6.4,4.2-10.2c-0.6-0.6-1-1.5-1-2.6c0-1.7,0.5-3.2,1.5-4.7c1-1.5,2-2.2,3-2.2
		c0.8,0,1.3,0.4,1.7,1.3c0.3,0.9,0.5,1.4,0.5,1.8c0,0.3-0.1,0.9-0.4,1.7c-0.3,0.8-0.5,1.4-0.6,1.8c0.1,0.7,0.6,1.4,1.7,2
		c1,0.7,2.2,1.4,3.6,2.3c1.3,0.9,2.5,2,3.5,3.3c1,1.3,1.5,3,1.5,5.1c0,1.8-0.4,3.7-1.2,5.6c-0.8,1.9-1.7,3.7-2.5,5.3
		c-0.8,1.7-1.2,3.1-1.2,4.3c0,0.9,0.2,1.5,0.7,1.8c0.5,0.3,1,0.4,1.7,0.4c1.5,0,3.1-0.5,4.8-1.4c1.7-0.9,3.3-2.1,4.9-3.6
		c1.6-1.5,3-3,4.2-4.6c1.2-1.6,2.1-3.1,2.8-4.4l2.3,1.7c-1.2,2.7-3,5.4-5.2,8.1c-2.3,2.6-4.8,4.8-7.6,6.5
		C267,122,264.2,122.8,261.3,122.8z"/>
	<path class="st4" d="M283.6,124.8c-2.1,0-3.9-0.7-5.5-2.1c-1.6-1.4-2.3-3.5-2.3-6.3c0-2.2,0.5-4.6,1.5-7.2c1-2.6,2.4-5.2,4.2-7.7
		c1.8-2.5,3.8-4.8,6.1-6.9c2.3-2.1,4.7-3.7,7.3-5c2.6-1.3,5.2-1.9,7.8-1.9c2.7,0,5.1,0.7,7,2.1c1.9,1.4,2.9,3.2,2.9,5.5
		c0,1.7-0.6,3-1.8,3.7c-1.2,0.8-2.6,1-4.3,0.7c0.1-0.6,0.2-1.1,0.3-1.7c0.1-0.6,0.1-1.2,0.1-1.8c0-1.3-0.3-2.4-0.8-3.4
		c-0.5-1-1.6-1.5-3.2-1.5c-1.8,0-3.6,0.6-5.4,1.8c-1.8,1.2-3.6,2.8-5.3,4.7c-1.7,1.9-3.2,4.1-4.5,6.4c-1.3,2.3-2.4,4.6-3.1,6.8
		c-0.8,2.2-1.1,4.2-1.1,6c0,2,0.7,3.1,2.2,3.1c1.5,0,3.1-0.7,4.9-2.1c1.8-1.4,3.6-3.2,5.4-5.4c1.8-2.2,3.5-4.4,5.2-6.6
		c1.7-2.3,3.1-4.2,4.3-5.8c0.2-0.3,0.4-0.5,0.8-0.5c0.3,0.1,0.7,0.2,1.5,0.4c0.7,0.2,1.4,0.6,2,1c0.6,0.4,1,1,1,1.7
		c0,0.6-0.3,1.4-0.8,2.4c-0.5,1-1.2,2.1-1.9,3.2c-0.7,1.2-1.4,2.4-1.9,3.5c-0.5,1.2-0.8,2.3-0.8,3.4c0,0.8,0.2,1.6,0.7,2.3
		c0.4,0.7,1.2,1.1,2.2,1.1c1.5,0,3.7-1.1,6.4-3.4c2.8-2.3,5.6-6.1,8.4-11.5l1.8,1.8c-1.5,3.4-3.4,6.5-5.5,9.1
		c-2.1,2.6-4.4,4.7-6.7,6.2c-2.4,1.5-4.7,2.2-7.1,2.2c-2.6,0-4.5-0.8-5.8-2.5c-1.3-1.7-2-3.4-2.1-5.3c0-0.1,0-0.2,0-0.3
		c0-0.1,0-0.1,0-0.2c-2.5,3-4.9,5.5-7,7.2C288.3,123.9,286.1,124.8,283.6,124.8z"/>
	<path class="st4" d="M320.5,147c-0.7,0-1.5-0.2-2.5-0.7c-1-0.4-1.8-1.3-2.6-2.6c-0.7-1.3-1.1-3.3-1.1-5.9c0-2.7,0.5-6.3,1.4-10.7
		c0.9-4.4,2.2-9.3,3.8-14.7c1.6-5.4,3.5-10.9,5.7-16.5c2.2-5.7,4.5-11.1,7.1-16.3c2.5-5.2,5.1-10,7.8-14.2c2.7-4.2,5.4-7.5,8.1-10
		c2.7-2.5,5.2-3.7,7.7-3.7c1.7,0,2.7,0.5,3.2,1.5c0.5,1,0.8,2.1,0.8,3.4c0,2.7-0.7,5.7-2.2,9c-1.5,3.2-3.5,6.5-6,9.8
		c-2.5,3.3-5.3,6.4-8.3,9.3c-3.1,2.9-6.2,5.4-9.5,7.5c-0.3,0.6-0.5,1.3-0.8,1.9c-0.3,0.6-0.5,1.3-0.8,1.9c0.7,0.3,1.3,0.7,1.7,1.3
		c0.4,0.6,0.7,1.3,0.7,2c0.5,2.7,1,5.2,1.5,7.3c0.5,2.1,1.3,3.8,2.3,5c1,1.2,2.6,1.8,4.5,1.8c2.2,0,4.2-0.8,5.9-2.5
		c1.7-1.7,3.5-4,5.2-7l2.1,1.5c-2,4.1-4.3,7-6.9,8.9c-2.5,1.9-4.8,2.8-6.9,2.8c-1.1,0-2.2-0.2-3.4-0.7c-1.2-0.4-2.3-1.1-3.4-1.9
		c-0.1,3.9-0.5,7.8-1.4,11.7c-0.9,3.8-2,7.3-3.5,10.4c-1.5,3.1-3.1,5.6-4.9,7.5C324.3,146.1,322.4,147,320.5,147z M323.2,141.1
		c0.7,0,1.4-0.6,2.2-1.8c0.8-1.2,1.6-2.8,2.3-4.8c0.8-2,1.5-4.1,2.1-6.5c0.6-2.4,1.1-4.7,1.5-7.1c0.4-2.3,0.6-4.4,0.6-6.3
		c0-1.8-0.2-3.5-0.6-4.9c-0.4-1.4-1.1-3-2.1-4.8c-1.5,4.4-2.8,8.6-3.9,12.7c-1.1,4.1-2,7.8-2.7,11.1c-0.6,3.3-1,6.1-1,8.3
		C321.7,139.7,322.2,141.1,323.2,141.1z M336.6,85.4c3.9-3.6,7.2-7.1,9.9-10.6c2.7-3.4,4.8-6.5,6.2-9.1c1.4-2.6,2.1-4.5,2.1-5.6
		c0-0.5-0.3-0.8-0.8-0.8c-1.5,0-3.3,1.2-5.2,3.5c-2,2.3-4,5.4-6.1,9.4C340.7,76.2,338.7,80.6,336.6,85.4z"/>
	<path class="st4" d="M360.8,124.7c-2.8,0-5.1-0.8-6.8-2.5c-1.7-1.7-2.6-4.2-2.6-7.5c0-2.6,0.5-5.8,1.5-9.7s2.2-7.9,3.8-12
		c-0.4-0.1-1-0.2-1.6-0.3c-0.6-0.1-1.2-0.3-1.8-0.5v-3c1,0.1,1.9,0.2,2.5,0.3c0.7,0.1,1.3,0.1,2,0.2c1.3-3.4,2.8-6.6,4.3-9.8
		c1.6-3.1,3.1-6,4.7-8.4c1.6-2.5,3-4.4,4.4-5.9c1.4-1.4,2.6-2.1,3.7-2.1c0.6,0,1.2,0.2,1.8,0.7c0.6,0.5,0.9,1.2,0.9,2
		c0,1.3-0.7,3.1-2,5.4c-1.3,2.4-2.9,5.1-4.8,8.2s-3.8,6.5-5.5,10.1c0.5,0,1,0,1.5,0c0.5,0,1,0,1.4,0c2.8,0,5.3,0,7.6-0.1
		c2.3-0.1,4.6-0.3,6.9-0.5v3.1c-3.5,0.3-6.7,0.6-9.6,0.8c-2.9,0.2-5.7,0.3-8.4,0.4c-0.2,0-0.4,0-0.6,0c-0.2,0-0.4,0-0.6,0
		c-1.3,3.1-2.5,6.3-3.5,9.6c-1,3.3-1.5,6.5-1.5,9.6c0,2.6,0.4,4.4,1.2,5.5c0.8,1.1,2.1,1.6,3.9,1.6c3.2,0,6.4-1.4,9.8-4.3
		c3.3-2.9,6.2-6.8,8.7-11.8l1.3,1c-1.7,3.8-3.7,7.1-6.1,10.2c-2.4,3-5.1,5.4-8,7.2C366.8,123.8,363.8,124.7,360.8,124.7z"/>
</g>
<g>
</g>
<g>
</g>
<g>
</g>
<g>
</g>
<g>
</g>
<g>
</g>
<g>
</g>
<g>
</g>
<g>
</g>
<g>
</g>
<g>
</g>
</svg>
