<?xml version="1.0" encoding="utf-8"?>
<!-- Generator: Adobe Illustrator 24.0.1, SVG Export Plug-In . SVG Version: 6.00 Build 0)  -->
<svg version="1.1" id="Layer_1" xmlns="http://www.w3.org/2000/svg" xmlns:xlink="http://www.w3.org/1999/xlink" x="0px" y="0px"
	 viewBox="0 0 859 453" style="enable-background:new 0 0 859 453;" xml:space="preserve">
<style type="text/css">
	.st0{display:none;fill:#969696;}
	.st1{fill:#496E80;}
	.st2{fill:#6D92A3;}
	.st3{fill:#A6C5DD;}
	.st4{fill:#D34F4F;}
	.st5{fill:#AD2323;}
	.st6{fill:#605B5B;}
</style>
<g id="logo2_1_">
	<g id="logo2">
		<path class="st0" d="M51.3,251.8c0.1,5.6,0.3,12.1,0.5,19.1c0.2,7,0.4,14.5,0.6,21.9c0.5,14.9,0.9,29.8,1.3,41
			c0.1,2.8,0.2,5.4,0.3,7.6c0.2,2.3,0.3,4.3,0.4,5.9c0.3,3.3,0.5,5.1,0.5,5.1s0.2-1.9,0.5-5.1c0.1-1.6,0.2-3.6,0.4-5.9
			c0.1-2.3,0.2-4.8,0.3-7.6c0.3-11.2,0.8-26.1,1.3-41c0.2-7.5,0.4-14.9,0.6-21.9c0.2-7,0.3-13.5,0.5-19.1
			c0.2-11.2,0.4-18.7,0.4-18.7c0-0.1,0-0.1,0-0.2c0-2.4-1.8-4.2-4-4.2c-2.2,0.1-3.9,2-3.8,4.4C50.9,233.2,51,240.6,51.3,251.8z
			 M54.8,231.9c0.8,0,1.9-0.1,1.9,6.2c0,6.3-0.8,16.7-1.9,16.7c-1,0-1.9-10.4-1.9-16.7C53,231.8,54,231.9,54.8,231.9z"/>
		<rect x="56.6" y="235.1" class="st0" width="2" height="6.7"/>
		<path class="st1" d="M54.8,231.9c0.8,0,1.9-0.1,1.9,6.2c0,6.3-0.8,16.7-1.9,16.7c-1,0-1.9-10.4-1.9-16.7
			C53,231.8,54,231.9,54.8,231.9z M54.7,228.8C54.7,228.8,54.8,228.8,54.7,228.8l0.1,3c-0.8,0-1.9-0.1-1.9,6.2c0,0.5,0,0.9,0,1.4
			c0,0.5,0,1,0,1.6c0.2,6.1,0.9,13.7,1.8,13.7v46.4c-0.8-0.5-1.5-1-2.3-1.5c0,1,0.1,2,0.1,3c0.8,0.5,1.5,1,2.2,1.5
			c0.1,0.1,0.2,0.2,0.4,0.3c0.6,0.5,0.7,0.7,1,0.9c0.3,0.2,0.5,0.3,0.7,0.4c0-1,0.1-2,0.1-3.1c0.1-3.3,0.2-6.5,0.3-9.8
			c0.2-7.5,0.4-14.9,0.6-21.9l0.5-19.1c0.1-5,0.2-9.3,0.3-12.4c0-0.5,0-1,0-1.4c0.1-3.1,0.1-4.8,0.1-4.8V233
			C58.7,230.6,56.9,228.8,54.7,228.8z M53.8,338.1c0,1,0.1,2,0.1,3c0,0.2,0,0.3,0,0.5c0.2,2.3,0.3,4.3,0.4,5.9
			c0.3,3.3,0.5,5.1,0.5,5.1s0.2-1.9,0.5-5.1c0.1-1.3,0.2-2.9,0.3-4.7c0-0.4,0.1-0.8,0.1-1.2c0-0.4,0-0.8,0.1-1.2
			c-0.3-0.3-0.6-0.7-0.9-1.1C54.5,338.9,54.1,338.5,53.8,338.1z"/>
		<path class="st1" d="M56.9,305.7l0,0.7c0,1.3-0.1,2.6-0.1,3.8c-0.3,8.7-0.5,16.9-0.7,23.7c-0.1,2.3-0.2,4.5-0.3,6.4
			c-0.3-0.3-0.6-0.7-0.9-1.1v-35.1c0.1,0.1,0.2,0.2,0.4,0.3c0.6,0.5,0.7,0.7,1,0.9C56.5,305.6,56.7,305.7,56.9,305.7z"/>
		<path class="st2" d="M53,238.1c0,0.5,0,0.9,0,1.4c0,0.5,0,1,0,1.6c0.2,6.1,0.9,13.7,1.8,13.7v46.4c-0.8-0.5-1.5-1-2.3-1.5
			c-0.1-2.3-0.1-4.5-0.2-6.8c-0.2-7.5-0.4-14.9-0.6-21.9c-0.2-7-0.3-13.5-0.5-19.1c-0.1-3.8-0.2-7.1-0.2-9.9c0-0.6,0-1.1,0-1.7
			c-0.1-4.4-0.2-7.1-0.2-7.1c0-2.3,1.7-4.3,3.8-4.4c0,0,0.1,0,0.1,0v3C54,231.9,53,231.8,53,238.1z"/>
		<path class="st2" d="M54.8,304.2v35.1c-0.4-0.4-0.7-0.8-1-1.2c-0.1-1.3-0.1-2.7-0.2-4.2c-0.2-5.8-0.4-12.6-0.6-19.9
			c0-1.1-0.1-2.3-0.1-3.4c-0.1-2.6-0.2-5.3-0.2-8C53.4,303.2,54.1,303.6,54.8,304.2z"/>
		<path class="st3" d="M54.8,301.1v3c-0.7-0.5-1.4-1-2.2-1.5c0-1-0.1-2-0.1-3C53.3,300.1,54.1,300.6,54.8,301.1z"/>
		<path class="st2" d="M53.8,338.1c0.3,0.4,0.7,0.8,1,1.2v13.3c0,0-0.2-1.9-0.5-5.1c-0.1-1.6-0.2-3.6-0.4-5.9c0-0.2,0-0.3,0-0.5
			C53.9,340.1,53.8,339.1,53.8,338.1z"/>
		<path class="st4" d="M53,241.1c0-0.5,0-1.1,0-1.6c1.8-0.6,3.8-1.1,5.7-1.5c1.2-0.2,2.3-0.4,3.5-0.5c4.4-0.5,8.9-0.5,13.3-0.3
			c2.2,0,4.4,0,6.5-0.4c2.1-0.4,4.3-1,6.2-2.2c-1.8,1.2-3.9,2-6.1,2.5c-2.2,0.5-4.4,0.7-6.6,0.7c-4.4,0.1-8.8,0.2-13.1,0.9
			c-1.2,0.2-2.5,0.4-3.7,0.7C56.7,239.8,54.8,240.4,53,241.1z"/>
		<path class="st4" d="M59.1,306c0,0.3-0.1,0.5-0.1,0.8c-0.1,0.2-0.2,0.5-0.2,0.6c-0.1,0.3-0.3,0.5-0.4,0.8c-0.3,0.5-0.7,1-1,1.5
			c-0.2,0.2-0.3,0.4-0.5,0.6c0-1.3,0.1-2.5,0.1-3.8c0.3-0.2,0.5-0.2,0.5-0.4c0-0.1-0.2-0.2-0.5-0.3c-0.2-0.1-0.4-0.2-0.7-0.4
			c-0.4-0.3-0.5-0.5-1-0.9c-0.1-0.1-0.2-0.2-0.4-0.3c-0.7-0.5-1.4-1-2.2-1.5c-0.9-0.6-1.9-1.2-2.9-1.8c-1.9-1.2-3.8-2.4-5.6-3.8
			c-3.6-2.7-6.9-5.9-9.5-9.7c-2.5-3.8-4.1-8.3-4.6-12.9c-0.2-2.3-0.2-4.6,0.1-6.9c0.3-2.3,0.8-4.5,1.6-6.6c0.8-2.1,1.7-4.2,2.9-6.2
			c0.5-1,1.2-1.9,1.8-2.9c0.7-0.9,1.3-1.8,2.1-2.6c1.5-1.7,3.1-3.2,4.9-4.7c1.8-1.4,3.7-2.6,5.7-3.6c0.6-0.3,1.2-0.6,1.8-0.8
			c0,0.5,0,1.1,0,1.7c-0.4,0.2-0.7,0.4-1.1,0.5c-1.9,1-3.7,2.2-5.3,3.6c-1.6,1.4-3.2,2.9-4.5,4.6c-0.7,0.8-1.3,1.7-2,2.6
			c-0.6,0.9-1.2,1.8-1.7,2.7c-1.1,1.8-1.9,3.8-2.6,5.8c-0.7,2-1.1,4.1-1.4,6.2c-0.2,2.1-0.2,4.2,0,6.3c0.5,4.2,1.9,8.3,4.3,11.8
			c2.3,3.5,5.5,6.5,8.9,9.1c1.7,1.3,3.5,2.5,5.4,3.7c0.5,0.3,1,0.6,1.5,0.9c0.8,0.5,1.5,0.9,2.3,1.5c0.6,0.4,1.3,0.9,1.9,1.3
			c0.1,0.1,0.2,0.2,0.3,0.2c0.4,0.3,0.7,0.7,1.1,1.1C58.5,304.2,59,305,59.1,306z"/>
		<path class="st4" d="M94.9,366.4c-8.4-2.7-16.4-6.5-23.9-11.2c-3.7-2.4-7.3-5.1-10.7-8c-1.6-1.4-3.2-2.9-4.7-4.4
			c-0.3-0.3-0.5-0.5-0.8-0.8c-0.3-0.3-0.6-0.6-0.9-0.9c-1-1.1-2-2.2-3-3.4c-1.4-1.7-2.7-3.6-3.8-5.6c-1-2-1.9-4.3-2-6.7
			c-0.1-1.2,0-2.4,0.3-3.6c0.3-1.2,0.8-2.3,1.3-3.3c1.1-2,2.6-3.8,4-5.5c0.7-0.8,1.4-1.5,2.1-2.2c0,1.1,0.1,2.3,0.1,3.4
			c-0.1,0.1-0.3,0.3-0.4,0.4c-2.8,3.2-5.6,6.7-5.2,10.7c0.1,2,0.8,4,1.7,5.9c0.9,1.9,2.1,3.7,3.4,5.4c0.4,0.5,0.8,1.1,1.3,1.6
			c0.3,0.4,0.7,0.8,1,1.2c0.3,0.4,0.6,0.7,0.9,1.1c1.8,2,3.7,3.9,5.6,5.7c3.2,3,6.6,5.7,10.3,8.1C78.9,359.1,86.7,363.2,94.9,366.4z
			"/>
	</g>
	<g>
		<path class="st5" d="M125.5,347.9c-2.2,0-4.1-1-5.7-3c-1.6-2-2.4-4.4-2.4-7.2c0-0.5,0-1.1,0-2c0-0.8,0.1-1.8,0.1-2.7
			c-2.2,4-4.8,7.4-8,10c-3.1,2.6-6.9,3.9-11.3,3.9c-4,0-7.2-1.2-9.5-3.6c-2.3-2.4-3.4-5.8-3.4-10.1c0-2.7,0.4-5.5,1.1-8.6
			s1.6-6.3,2.7-9.6c1.1-3.3,2.2-6.7,3.3-10c1.1-3.3,2-6.7,2.7-9.9c0.7-3.3,1.1-6.3,1.1-9.2c0-5.4-1.6-8.1-4.9-8.1
			c-1.6,0-3,0.5-4.2,1.5c-1.1,1-2.1,2.3-2.9,3.8c-0.8,1.5-1.3,3.1-1.7,4.7c-0.4,1.6-0.5,2.9-0.5,4c0,0.9,0.1,1.9,0.4,2.9
			c0.2,1.1,0.5,2,0.8,2.9c-2.9,0-5-0.7-6.2-2c-1.2-1.3-1.9-3-1.9-5c0-1.9,0.5-3.8,1.4-5.7c0.9-1.9,2.2-3.7,3.8-5.4
			c1.7-1.7,3.6-3,5.8-4s4.6-1.5,7.2-1.5c3.7,0,6.4,1.1,8,3.2c1.7,2.1,2.5,4.9,2.5,8.5c0,2.2-0.3,4.7-0.8,7.4
			c-0.5,2.7-1.2,5.5-2.1,8.4c-0.8,2.9-1.7,5.7-2.5,8.4c-1.5,4.9-2.7,9.1-3.7,12.7c-1,3.6-1.5,6.8-1.5,9.6c0,2.8,0.6,5.1,1.7,7
			c1.1,1.9,3.1,2.9,5.8,2.9c2.5,0,4.7-0.8,6.8-2.3s3.8-3.5,5.4-6c1.5-2.4,2.9-5,3.9-7.7c1.1-2.7,1.9-5.2,2.4-7.6
			c0.8-3.6,1.8-7.4,2.8-11.4c1-4,2.1-8,3.2-12c1.1-3.9,2.2-7.5,3.4-10.7c1.1-3.2,2.3-5.7,3.4-7.6c1.1-1.9,2.2-2.9,3.3-2.9
			c0.6,0,1.4,0.3,2.5,1c1.1,0.6,2.2,1.5,3.3,2.6c-0.5,0.4-1.3,1.7-2.4,3.8c-1,2.1-2.2,4.8-3.4,8.1c-1.3,3.3-2.5,7-3.8,11
			s-2.5,8.1-3.5,12.3c-1.1,4.2-1.9,8.2-2.6,12.1c-0.7,3.9-1,7.3-1,10.3c0,3.7,0.6,6.2,1.9,7.4s3.5,1.8,6.6,1.8
			c-0.7,1.1-1.8,2.1-3.3,2.7C128.3,347.6,126.9,347.9,125.5,347.9z"/>
		<path class="st5" d="M168.6,340.8c-2.4,0-4.1-0.6-5.4-1.8c-1.2-1.2-1.9-2.7-1.9-4.5c0-1.2,0.2-2.5,0.6-3.8s0.8-2.7,1.3-4.1
			c0.4-1.4,0.6-2.7,0.6-4c0-1.3-0.3-2.2-1-2.8c-0.6-0.5-1.4-0.8-2.2-0.8c-1.8,0-3.7,0.7-5.6,2.2c-1.9,1.5-3.7,3.3-5.5,5.6
			c-1.8,2.2-3.5,4.6-5,7c-1.6,2.4-2.9,4.6-4.1,6.5c-1.1,0-2.2-0.2-3.3-0.6c-1-0.4-1.9-1.1-2.6-2c0.1-0.3,0.4-1.2,1-2.8
			c0.6-1.5,1.3-3.4,2.1-5.5c0.8-2.1,1.5-4.4,2.1-6.7c0.6-2.4,0.9-4.5,0.9-6.4c0.4-0.5,1.1-1,1.9-1.5c0.9-0.5,1.8-0.7,2.8-0.7
			c2.1,0,3.2,0.9,3.2,2.7c0,0.7-0.1,1.8-0.4,3.2c-0.3,1.4-0.7,3-1.1,4.8c1.6-2.1,3.3-4.1,5.2-6c1.9-1.9,3.8-3.4,5.8-4.6
			c2-1.2,4.1-1.8,6.1-1.8c2.6,0,4.5,0.9,5.7,2.6s1.9,3.7,1.9,5.8c0,1.8-0.3,3.5-0.9,5.1s-1.2,3-1.8,4.4c-0.6,1.4-0.9,2.7-0.9,4.1
			c0,1,0.2,1.6,0.7,2c0.5,0.4,1,0.6,1.5,0.6c1.5,0,3-0.7,4.5-2.1c1.6-1.4,3.1-3.2,4.5-5.3c1.4-2.1,2.7-4.3,3.8-6.5l1.5,1.3
			c-1.3,3-2.7,5.7-4.3,8.1c-1.6,2.4-3.4,4.4-5.3,5.9C173.2,340,171,340.8,168.6,340.8z"/>
		<path class="st5" d="M188.2,341.7c-2.7,0-4.6-0.8-6-2.4s-2-3.5-2-5.7c0-1.4,0.2-3.1,0.7-5.2c0.5-2.1,1.2-4.3,2-6.7
			c0.9-2.3,1.9-4.5,3-6.6s2.4-3.7,3.7-5c1.3-1.3,2.7-1.9,4-1.9c0.7,0,1.4,0.2,1.9,0.7c0.5,0.5,0.8,1.1,0.8,1.9c0,0.8-0.5,2-1.4,3.5
			s-2,3.4-3.3,5.4c-1.2,2.1-2.3,4.2-3.3,6.4s-1.4,4.3-1.4,6.3c0,1.9,0.3,3.2,1,3.8c0.7,0.6,1.7,1,3,1c2.1,0,4.3-1,6.7-3.1
			c2.4-2.1,4.9-5.6,7.5-10.8l1.4,1.5c-2.1,5.3-4.8,9.4-8.1,12.4C195.4,340.2,191.9,341.7,188.2,341.7z M198.9,300.9
			c-1.1,0-2.2-0.3-3.1-0.9s-1.4-1.5-1.4-2.7c0-1.5,0.8-2.7,2.4-3.7c1.6-1,3.2-1.5,4.9-1.5c1.1,0,2,0.2,2.8,0.7
			c0.8,0.5,1.1,1.4,1.1,2.6c0,1.3-0.7,2.5-2.1,3.7C202,300.3,200.5,300.9,198.9,300.9z"/>
		<path class="st5" d="M225.7,346.8c-4.6,0-8.3-1.1-11.3-3.3c-2.9-2.2-5.1-5-6.4-8.4s-2-7-2-10.7c0-4.8,0.7-9.5,2.2-14.3
			c1.5-4.8,3.5-9.4,6-13.7c2.6-4.3,5.5-8.2,8.7-11.6c3.3-3.4,6.7-6.1,10.5-8s7.4-2.9,11.1-2.9c2.7,0,4.9,0.6,6.7,1.9
			c1.8,1.2,2.7,3.4,2.7,6.4c0,1.8-0.3,3.8-1,6.1c-0.6,2.2-1.5,4.4-2.5,6.5c-1.1,2.1-2.3,3.8-3.6,5.1c-1.3,1.3-2.7,2-4.1,2
			c-0.6,0-1.2-0.2-1.9-0.6c-0.7-0.4-1.3-1.1-1.8-2.2c0.9-1,1.9-2.3,3.1-3.8c1.1-1.5,2.2-3,3.3-4.7c1-1.7,1.9-3.3,2.5-4.9
			c0.7-1.6,1-3,1-4.2c0-1.1-0.3-1.9-0.9-2.6c-0.6-0.6-1.7-1-3.2-1c-2.7,0-5.4,1-8.2,3c-2.8,2-5.5,4.7-8.1,8c-2.6,3.3-4.9,7.1-7,11.2
			c-2.1,4.1-3.7,8.4-4.9,12.8c-1.2,4.4-1.8,8.5-1.8,12.5c0,2.9,0.4,5.7,1.3,8.3c0.9,2.6,2.3,4.8,4.2,6.4c1.9,1.7,4.5,2.5,7.6,2.5
			c3.3,0,6.5-0.9,9.7-2.7c3.2-1.8,6.2-4.2,8.9-7.2c2.7-3,4.8-6.1,6.5-9.5l2.4,1.5c-2.1,4-4.6,7.7-7.6,11.1s-6.3,6-10,8.1
			C233.9,345.8,229.9,346.8,225.7,346.8z"/>
		<path class="st5" d="M267.7,341.3c-2.2,0-4-0.6-5.4-1.8c-1.4-1.2-2.1-2.8-2.1-4.8c0-1.7,0.4-3.5,1.3-5.4c0.8-1.9,1.7-3.8,2.6-5.7
			c0.9-1.9,1.3-3.5,1.3-5c0-1.4-0.5-2.5-1.4-3.5c-0.9-0.9-2-1.7-3.2-2.3c-1.3,3.3-2.8,6.5-4.5,9.6c-1.7,3.1-3,5.5-4,7.3l-1.4-2.6
			c0.8-1.6,2-3.8,3.3-6.7c1.4-2.9,2.7-6.1,4-9.7c-0.6-0.6-0.9-1.4-0.9-2.4c0-1.6,0.5-3,1.5-4.4s1.9-2.1,2.8-2.1
			c0.7,0,1.3,0.4,1.6,1.2s0.5,1.4,0.5,1.7c0,0.3-0.1,0.8-0.4,1.6c-0.3,0.8-0.5,1.4-0.6,1.7c0.1,0.7,0.6,1.3,1.6,1.9
			c1,0.6,2.1,1.4,3.4,2.2c1.3,0.8,2.4,1.9,3.3,3.2c1,1.3,1.5,2.9,1.5,4.8c0,1.8-0.4,3.5-1.2,5.3c-0.8,1.8-1.6,3.5-2.4,5.1
			s-1.2,2.9-1.2,4.1c0,0.8,0.2,1.4,0.7,1.7c0.5,0.3,1,0.4,1.6,0.4c1.5,0,3-0.4,4.5-1.3c1.6-0.9,3.1-2,4.6-3.4c1.5-1.4,2.8-2.9,4-4.4
			c1.1-1.5,2-2.9,2.6-4.2l2.2,1.6c-1.1,2.6-2.8,5.1-5,7.7c-2.2,2.5-4.6,4.6-7.2,6.2C273.1,340.5,270.5,341.3,267.7,341.3z"/>
		<path class="st5" d="M288.9,343.2c-2,0-3.7-0.7-5.2-2c-1.5-1.3-2.2-3.3-2.2-6c0-2.1,0.5-4.4,1.5-6.9c1-2.5,2.3-4.9,4-7.3
			c1.7-2.4,3.6-4.6,5.8-6.6c2.2-2,4.5-3.5,7-4.8c2.5-1.2,4.9-1.8,7.4-1.8c2.6,0,4.8,0.7,6.6,2c1.8,1.3,2.7,3.1,2.7,5.2
			c0,1.6-0.6,2.8-1.7,3.5s-2.5,0.9-4.1,0.6c0.1-0.5,0.2-1.1,0.3-1.6c0.1-0.5,0.1-1.1,0.1-1.7c0-1.2-0.2-2.3-0.7-3.3
			s-1.5-1.5-3.1-1.5c-1.7,0-3.4,0.6-5.2,1.7s-3.4,2.6-5,4.5c-1.6,1.8-3,3.9-4.3,6.1c-1.3,2.2-2.3,4.4-3,6.5c-0.7,2.1-1.1,4-1.1,5.7
			c0,1.9,0.7,2.9,2.1,2.9c1.4,0,2.9-0.7,4.6-2c1.7-1.4,3.4-3.1,5.1-5.1c1.7-2.1,3.4-4.1,4.9-6.3s2.9-4,4.1-5.5
			c0.2-0.3,0.4-0.5,0.7-0.5c0.2,0.1,0.7,0.2,1.4,0.4c0.7,0.2,1.3,0.5,1.9,1c0.6,0.4,0.9,1,0.9,1.6c0,0.6-0.3,1.4-0.8,2.3
			c-0.5,0.9-1.1,2-1.8,3.1c-0.7,1.1-1.3,2.2-1.8,3.3c-0.5,1.1-0.8,2.2-0.8,3.2c0,0.8,0.2,1.5,0.6,2.2c0.4,0.7,1.1,1,2.1,1
			c1.5,0,3.5-1.1,6.1-3.2s5.3-5.8,8-10.9l1.7,1.7c-1.5,3.3-3.2,6.1-5.2,8.6c-2,2.5-4.1,4.5-6.4,5.9c-2.2,1.4-4.5,2.1-6.8,2.1
			c-2.5,0-4.3-0.8-5.5-2.4c-1.2-1.6-1.9-3.3-2-5.1c0-0.1,0-0.2,0-0.3c0-0.1,0-0.1,0-0.2c-2.4,2.9-4.6,5.2-6.7,6.9
			C293.4,342.4,291.2,343.2,288.9,343.2z"/>
		<path class="st5" d="M324,364.3c-0.7,0-1.5-0.2-2.4-0.6c-0.9-0.4-1.8-1.3-2.4-2.5c-0.7-1.2-1-3.1-1-5.6c0-2.6,0.4-6,1.3-10.2
			c0.9-4.2,2.1-8.8,3.6-13.9c1.5-5.1,3.3-10.3,5.4-15.7c2.1-5.4,4.3-10.5,6.7-15.5c2.4-5,4.9-9.5,7.4-13.4c2.6-4,5.1-7.2,7.7-9.5
			c2.5-2.4,5-3.5,7.3-3.5c1.6,0,2.6,0.5,3.1,1.4c0.5,0.9,0.7,2,0.7,3.2c0,2.6-0.7,5.4-2.1,8.5c-1.4,3.1-3.3,6.2-5.7,9.3
			c-2.4,3.1-5,6.1-7.9,8.8c-2.9,2.8-5.9,5.2-9,7.2c-0.2,0.6-0.5,1.2-0.7,1.8c-0.2,0.6-0.5,1.2-0.7,1.8c0.7,0.2,1.2,0.7,1.6,1.3
			c0.4,0.6,0.6,1.2,0.7,1.9c0.5,2.6,1,4.9,1.5,6.9c0.5,2,1.2,3.6,2.2,4.8c1,1.1,2.4,1.7,4.3,1.7c2.1,0,4-0.8,5.6-2.4
			c1.6-1.6,3.3-3.8,5-6.6l2,1.5c-1.9,3.9-4.1,6.7-6.5,8.5c-2.4,1.8-4.6,2.7-6.5,2.7c-1,0-2.1-0.2-3.2-0.6c-1.1-0.4-2.2-1-3.2-1.8
			c-0.1,3.7-0.5,7.4-1.3,11.1c-0.8,3.6-1.9,7-3.3,9.9s-2.9,5.3-4.7,7.1C327.5,363.4,325.8,364.3,324,364.3z M326.5,358.7
			c0.7,0,1.4-0.6,2.1-1.7c0.8-1.1,1.5-2.7,2.2-4.5c0.7-1.9,1.4-3.9,2-6.2c0.6-2.3,1.1-4.5,1.5-6.7c0.4-2.2,0.5-4.2,0.5-6
			c0-1.8-0.2-3.3-0.6-4.7c-0.4-1.4-1.1-2.9-2-4.6c-1.4,4.2-2.6,8.2-3.7,12c-1.1,3.9-1.9,7.4-2.5,10.5c-0.6,3.2-0.9,5.8-0.9,7.9
			C325,357.4,325.5,358.7,326.5,358.7z M339.3,305.8c3.7-3.4,6.8-6.8,9.4-10c2.6-3.3,4.6-6.1,5.9-8.6c1.4-2.5,2-4.3,2-5.3
			c0-0.5-0.2-0.7-0.7-0.7c-1.5,0-3.1,1.1-5,3.3c-1.9,2.2-3.8,5.2-5.8,8.9C343.1,297.1,341.2,301.3,339.3,305.8z"/>
		<path class="st5" d="M362.2,343.1c-2.7,0-4.8-0.8-6.4-2.4c-1.6-1.6-2.4-3.9-2.4-7.2c0-2.5,0.5-5.6,1.4-9.2s2.1-7.5,3.6-11.4
			c-0.4-0.1-0.9-0.2-1.5-0.3c-0.6-0.1-1.1-0.3-1.7-0.5v-2.8c1,0.1,1.8,0.2,2.4,0.3c0.6,0.1,1.3,0.1,1.9,0.2c1.3-3.2,2.6-6.3,4.1-9.3
			c1.5-3,3-5.7,4.4-8c1.5-2.4,2.9-4.2,4.2-5.6c1.3-1.4,2.5-2,3.5-2c0.6,0,1.2,0.2,1.7,0.7s0.8,1.1,0.8,2c0,1.2-0.6,2.9-1.9,5.2
			c-1.2,2.2-2.8,4.8-4.6,7.8c-1.8,3-3.6,6.2-5.2,9.5c0.5,0,1,0,1.5,0c0.5,0,0.9,0,1.4,0c2.7,0,5.1,0,7.2-0.1
			c2.1-0.1,4.3-0.3,6.6-0.5v3c-3.3,0.3-6.4,0.5-9.1,0.7c-2.8,0.2-5.4,0.3-8,0.4c-0.2,0-0.4,0-0.5,0c-0.2,0-0.4,0-0.5,0
			c-1.3,3-2.4,6-3.3,9.1c-0.9,3.1-1.4,6.1-1.4,9.1c0,2.5,0.4,4.2,1.2,5.2c0.8,1,2,1.5,3.7,1.5c3,0,6.1-1.4,9.3-4.1
			c3.2-2.7,5.9-6.5,8.3-11.2l1.3,0.9c-1.6,3.6-3.5,6.8-5.8,9.7s-4.8,5.2-7.6,6.8C367.9,342.3,365.1,343.1,362.2,343.1z"/>
	</g>
	<g>
		<path class="st6" d="M140.1,375.3c0,0.2-0.1,0.3-0.2,0.4c-0.1,0.1-0.3,0.1-0.4,0.1h-5.5c0,0.3,0,0.7,0.1,0.9
			c0.1,0.3,0.2,0.5,0.5,0.7c0.2,0.2,0.5,0.4,0.8,0.5c0.3,0.1,0.8,0.2,1.3,0.2c0.4,0,0.7,0,1.1-0.1c0.3,0,0.6-0.1,0.8-0.2
			c0.2-0.1,0.4-0.1,0.6-0.2c0.1,0,0.3-0.1,0.3-0.1c0,0,0.1,0,0.1,0c0,0,0.1,0,0.1,0.1c0,0,0,0.1,0,0.1c0,0.1,0,0.1,0,0.2
			c0,0.1,0,0.1,0,0.2c0,0,0,0.1,0,0.1s0,0.1,0,0.1c0,0,0,0.1-0.1,0.1c0,0-0.1,0.1-0.3,0.1c-0.2,0.1-0.4,0.1-0.6,0.2
			c-0.3,0.1-0.6,0.1-0.9,0.2c-0.3,0-0.7,0.1-1.1,0.1c-0.7,0-1.3-0.1-1.8-0.2c-0.5-0.1-0.9-0.4-1.3-0.6c-0.3-0.3-0.6-0.6-0.8-1.1
			c-0.2-0.4-0.3-0.9-0.3-1.5c0-0.5,0.1-1,0.3-1.5c0.2-0.4,0.5-0.8,0.8-1.1c0.3-0.3,0.8-0.5,1.3-0.7c0.5-0.2,1-0.2,1.6-0.2
			c0.7,0,1.2,0.1,1.7,0.2c0.5,0.2,0.8,0.4,1.1,0.6c0.3,0.3,0.5,0.6,0.7,0.9c0.1,0.4,0.2,0.7,0.2,1.2L140.1,375.3L140.1,375.3z
			 M138.6,374.9c0-0.6-0.2-1.1-0.5-1.4c-0.4-0.3-0.9-0.5-1.7-0.5c-0.4,0-0.7,0.1-1,0.2s-0.5,0.2-0.7,0.4s-0.3,0.4-0.4,0.6
			c-0.1,0.2-0.2,0.5-0.2,0.7L138.6,374.9L138.6,374.9z"/>
		<path class="st6" d="M151.1,372.4C151.1,372.4,151.1,372.4,151.1,372.4c0,0.1,0,0.1,0,0.1c0,0,0,0,0,0.1c0,0,0,0.1,0,0.1l-2.8,6
			c0,0-0.1,0.1-0.1,0.1s-0.1,0.1-0.2,0.1c-0.1,0-0.2,0-0.3,0c-0.1,0-0.3,0-0.5,0c-0.2,0-0.3,0-0.5,0c-0.1,0-0.2,0-0.3,0
			c-0.1,0-0.1,0-0.2-0.1c0,0-0.1-0.1-0.1-0.1l-2.8-6c0-0.1,0-0.1-0.1-0.1s0-0.1,0-0.1c0,0,0,0,0-0.1c0,0,0-0.1,0-0.1
			c0,0,0.1,0,0.1-0.1c0.1,0,0.1,0,0.2,0s0.2,0,0.4,0c0.2,0,0.3,0,0.4,0c0.1,0,0.2,0,0.2,0c0.1,0,0.1,0,0.1,0.1c0,0,0.1,0.1,0.1,0.1
			l2.3,5.2l0,0.1l0-0.1l2.3-5.2c0,0,0-0.1,0.1-0.1c0,0,0.1,0,0.1-0.1c0.1,0,0.1,0,0.2,0c0.1,0,0.2,0,0.4,0c0.1,0,0.3,0,0.3,0
			s0.2,0,0.2,0C151,372.3,151.1,372.3,151.1,372.4C151.1,372.3,151.1,372.4,151.1,372.4z"/>
		<path class="st6" d="M161.8,375.3c0,0.2-0.1,0.3-0.2,0.4c-0.1,0.1-0.3,0.1-0.4,0.1h-5.5c0,0.3,0,0.7,0.1,0.9
			c0.1,0.3,0.2,0.5,0.5,0.7c0.2,0.2,0.5,0.4,0.8,0.5c0.3,0.1,0.8,0.2,1.3,0.2c0.4,0,0.7,0,1.1-0.1c0.3,0,0.6-0.1,0.8-0.2
			c0.2-0.1,0.4-0.1,0.6-0.2c0.1,0,0.3-0.1,0.3-0.1c0,0,0.1,0,0.1,0c0,0,0.1,0,0.1,0.1c0,0,0,0.1,0,0.1c0,0.1,0,0.1,0,0.2
			c0,0.1,0,0.1,0,0.2c0,0,0,0.1,0,0.1c0,0,0,0.1,0,0.1c0,0,0,0.1-0.1,0.1c0,0-0.1,0.1-0.3,0.1c-0.2,0.1-0.4,0.1-0.6,0.2
			c-0.3,0.1-0.6,0.1-0.9,0.2c-0.3,0-0.7,0.1-1.1,0.1c-0.7,0-1.3-0.1-1.8-0.2c-0.5-0.1-0.9-0.4-1.3-0.6c-0.3-0.3-0.6-0.6-0.8-1.1
			c-0.2-0.4-0.3-0.9-0.3-1.5c0-0.5,0.1-1,0.3-1.5c0.2-0.4,0.5-0.8,0.8-1.1c0.3-0.3,0.8-0.5,1.3-0.7c0.5-0.2,1-0.2,1.6-0.2
			c0.7,0,1.2,0.1,1.7,0.2c0.5,0.2,0.8,0.4,1.1,0.6c0.3,0.3,0.5,0.6,0.7,0.9c0.1,0.4,0.2,0.7,0.2,1.2L161.8,375.3L161.8,375.3z
			 M160.3,374.9c0-0.6-0.2-1.1-0.5-1.4c-0.4-0.3-0.9-0.5-1.7-0.5c-0.4,0-0.7,0.1-1,0.2s-0.5,0.2-0.7,0.4c-0.2,0.2-0.3,0.4-0.4,0.6
			c-0.1,0.2-0.2,0.5-0.2,0.7L160.3,374.9L160.3,374.9z"/>
		<path class="st6" d="M170.9,372.8c0,0.1,0,0.2,0,0.3c0,0.1,0,0.1,0,0.2c0,0,0,0.1-0.1,0.1c0,0-0.1,0-0.1,0c0,0-0.1,0-0.2,0
			c-0.1,0-0.2,0-0.2-0.1c-0.1,0-0.2,0-0.3-0.1c-0.1,0-0.2,0-0.4,0c-0.2,0-0.3,0-0.5,0.1c-0.2,0-0.3,0.1-0.5,0.2
			c-0.2,0.1-0.3,0.2-0.5,0.4s-0.4,0.4-0.6,0.7v4.1c0,0,0,0.1,0,0.1c0,0-0.1,0-0.1,0.1c-0.1,0-0.1,0-0.2,0c-0.1,0-0.2,0-0.4,0
			c-0.2,0-0.3,0-0.4,0c-0.1,0-0.2,0-0.2,0c-0.1,0-0.1,0-0.1-0.1c0,0,0-0.1,0-0.1v-6.3c0,0,0-0.1,0-0.1c0,0,0.1,0,0.1-0.1
			c0.1,0,0.1,0,0.2,0c0.1,0,0.2,0,0.3,0c0.1,0,0.2,0,0.3,0c0.1,0,0.2,0,0.2,0c0,0,0.1,0,0.1,0.1c0,0,0,0.1,0,0.1v0.9
			c0.2-0.3,0.4-0.5,0.6-0.6c0.2-0.2,0.4-0.3,0.6-0.4c0.2-0.1,0.4-0.2,0.5-0.2c0.2,0,0.3-0.1,0.5-0.1c0.1,0,0.2,0,0.3,0
			c0.1,0,0.2,0,0.3,0c0.1,0,0.2,0,0.3,0.1c0.1,0,0.2,0,0.2,0.1c0,0,0.1,0,0.1,0.1c0,0,0,0,0,0.1c0,0,0,0.1,0,0.1
			C170.9,372.6,170.9,372.7,170.9,372.8z"/>
		<path class="st6" d="M178.3,378.9l-1.1,2.3c0,0.1-0.1,0.1-0.3,0.2c-0.2,0-0.4,0.1-0.7,0.1c-0.2,0-0.3,0-0.4,0
			c-0.1,0-0.2,0-0.2-0.1c-0.1,0-0.1-0.1-0.1-0.1s0-0.1,0-0.2l1.1-2.2c-0.1,0-0.1,0-0.2-0.1s-0.1-0.1-0.1-0.1l-3-6
			c0-0.1-0.1-0.2-0.1-0.2s0-0.1,0.1-0.1c0,0,0.1-0.1,0.2-0.1c0.1,0,0.3,0,0.4,0s0.3,0,0.4,0c0.1,0,0.2,0,0.2,0c0.1,0,0.1,0,0.1,0.1
			s0.1,0.1,0.1,0.1l2.4,5h0l2.3-5.1c0-0.1,0.1-0.1,0.1-0.2c0.1,0,0.1,0,0.2-0.1c0.1,0,0.3,0,0.5,0c0.2,0,0.3,0,0.4,0
			c0.1,0,0.2,0,0.2,0.1c0.1,0,0.1,0.1,0.1,0.1s0,0.1-0.1,0.2L178.3,378.9z"/>
		<path class="st6" d="M189.2,378.2c0,0.1,0,0.2,0,0.3c0,0.1-0.1,0.1-0.1,0.2c0,0-0.1,0.1-0.2,0.1c-0.1,0-0.2,0.1-0.3,0.1
			c-0.1,0-0.3,0-0.4,0.1c-0.1,0-0.3,0-0.4,0c-0.4,0-0.8,0-1.1-0.1c-0.3-0.1-0.6-0.2-0.8-0.4c-0.2-0.2-0.3-0.4-0.4-0.7
			c-0.1-0.3-0.1-0.6-0.1-0.9v-3.7h-1.2c-0.1,0-0.2,0-0.2-0.1c-0.1-0.1-0.1-0.2-0.1-0.4c0-0.1,0-0.2,0-0.2s0-0.1,0.1-0.2
			c0,0,0.1-0.1,0.1-0.1c0,0,0.1,0,0.1,0h1.1v-1.5c0,0,0-0.1,0-0.1c0,0,0.1-0.1,0.1-0.1c0.1,0,0.1,0,0.2,0c0.1,0,0.2,0,0.4,0
			c0.2,0,0.3,0,0.4,0c0.1,0,0.2,0,0.2,0c0.1,0,0.1,0,0.1,0.1c0,0,0,0.1,0,0.1v1.5h2.1c0,0,0.1,0,0.1,0c0,0,0.1,0,0.1,0.1
			c0,0,0,0.1,0.1,0.2s0,0.1,0,0.2c0,0.2,0,0.3-0.1,0.4c0,0.1-0.1,0.1-0.2,0.1h-2.1v3.5c0,0.4,0.1,0.8,0.3,1c0.2,0.2,0.5,0.3,0.9,0.3
			c0.1,0,0.3,0,0.4,0c0.1,0,0.2,0,0.3-0.1c0.1,0,0.2,0,0.2-0.1c0.1,0,0.1,0,0.2,0c0,0,0.1,0,0.1,0c0,0,0,0,0.1,0.1c0,0,0,0.1,0,0.1
			C189.2,378.1,189.2,378.1,189.2,378.2z"/>
		<path class="st6" d="M200.2,378.7C200.2,378.7,200.2,378.8,200.2,378.7c-0.1,0.1-0.1,0.1-0.2,0.2c-0.1,0-0.1,0-0.2,0
			c-0.1,0-0.2,0-0.4,0c-0.2,0-0.3,0-0.4,0c-0.1,0-0.2,0-0.2,0c-0.1,0-0.1,0-0.1-0.1c0,0,0-0.1,0-0.1V375c0-0.4,0-0.6-0.1-0.9
			s-0.2-0.4-0.3-0.6c-0.1-0.2-0.3-0.3-0.5-0.4s-0.5-0.1-0.8-0.1c-0.4,0-0.8,0.1-1.1,0.3c-0.4,0.2-0.8,0.5-1.2,0.9v4.4
			c0,0,0,0.1,0,0.1c0,0-0.1,0-0.1,0.1c-0.1,0-0.1,0-0.2,0c-0.1,0-0.2,0-0.4,0c-0.2,0-0.3,0-0.4,0s-0.2,0-0.2,0c-0.1,0-0.1,0-0.1-0.1
			c0,0,0-0.1,0-0.1v-9.3c0,0,0-0.1,0-0.1s0.1,0,0.1-0.1c0.1,0,0.1,0,0.2,0c0.1,0,0.2,0,0.4,0c0.2,0,0.3,0,0.4,0c0.1,0,0.2,0,0.2,0
			c0.1,0,0.1,0,0.1,0.1s0,0.1,0,0.1v3.8c0.4-0.3,0.9-0.6,1.3-0.8c0.4-0.2,0.9-0.3,1.3-0.3c0.6,0,1,0.1,1.4,0.2
			c0.4,0.1,0.7,0.3,0.9,0.6c0.2,0.2,0.4,0.5,0.5,0.8c0.1,0.3,0.2,0.7,0.2,1.1L200.2,378.7L200.2,378.7z"/>
		<path class="st6" d="M206.6,370.3c0,0.3-0.1,0.5-0.2,0.5s-0.4,0.1-0.7,0.1c-0.4,0-0.6,0-0.7-0.1c-0.1-0.1-0.2-0.3-0.2-0.5
			c0-0.3,0.1-0.5,0.2-0.5s0.4-0.1,0.7-0.1c0.4,0,0.6,0,0.7,0.1C206.5,369.8,206.6,370,206.6,370.3z M206.4,378.7
			C206.4,378.7,206.4,378.8,206.4,378.7c-0.1,0.1-0.1,0.1-0.2,0.2c-0.1,0-0.1,0-0.2,0c-0.1,0-0.2,0-0.4,0c-0.2,0-0.3,0-0.4,0
			c-0.1,0-0.2,0-0.2,0c-0.1,0-0.1,0-0.1-0.1c0,0,0-0.1,0-0.1v-6.3c0,0,0-0.1,0-0.1c0,0,0.1,0,0.1-0.1c0.1,0,0.1,0,0.2,0
			c0.1,0,0.2,0,0.4,0c0.2,0,0.3,0,0.4,0c0.1,0,0.2,0,0.2,0c0.1,0,0.1,0,0.1,0.1c0,0,0,0.1,0,0.1V378.7z"/>
		<path class="st6" d="M218.3,378.7C218.3,378.7,218.2,378.8,218.3,378.7c-0.1,0.1-0.1,0.1-0.2,0.2c-0.1,0-0.1,0-0.2,0
			c-0.1,0-0.2,0-0.4,0c-0.2,0-0.3,0-0.4,0c-0.1,0-0.2,0-0.2,0c-0.1,0-0.1,0-0.1-0.1c0,0,0-0.1,0-0.1V375c0-0.4,0-0.6-0.1-0.9
			s-0.2-0.4-0.3-0.6c-0.1-0.2-0.3-0.3-0.5-0.4s-0.5-0.1-0.8-0.1c-0.4,0-0.8,0.1-1.1,0.3c-0.4,0.2-0.8,0.5-1.2,0.9v4.4
			c0,0,0,0.1,0,0.1c0,0-0.1,0-0.1,0.1c-0.1,0-0.1,0-0.2,0c-0.1,0-0.2,0-0.4,0c-0.2,0-0.3,0-0.4,0c-0.1,0-0.2,0-0.2,0
			c-0.1,0-0.1,0-0.1-0.1c0,0,0-0.1,0-0.1v-6.3c0,0,0-0.1,0-0.1s0.1,0,0.1-0.1c0.1,0,0.1,0,0.2,0s0.2,0,0.3,0c0.1,0,0.2,0,0.3,0
			c0.1,0,0.2,0,0.2,0c0,0,0.1,0,0.1,0.1c0,0,0,0.1,0,0.1v0.8c0.5-0.4,0.9-0.7,1.4-0.9s0.9-0.3,1.4-0.3c0.6,0,1,0.1,1.4,0.2
			s0.7,0.3,0.9,0.6c0.2,0.2,0.4,0.5,0.5,0.8c0.1,0.3,0.2,0.7,0.2,1.1L218.3,378.7L218.3,378.7z"/>
		<path class="st6" d="M229.8,372.7c0,0.2,0,0.3-0.1,0.3c-0.1,0.1-0.1,0.1-0.2,0.1h-1.2c0.2,0.2,0.4,0.3,0.5,0.6
			c0.1,0.2,0.1,0.4,0.1,0.6c0,0.4-0.1,0.7-0.2,1c-0.2,0.3-0.4,0.5-0.7,0.7s-0.6,0.3-1,0.4c-0.4,0.1-0.8,0.2-1.3,0.2
			c-0.3,0-0.7,0-1-0.1c-0.3-0.1-0.5-0.2-0.7-0.3c-0.1,0.1-0.2,0.2-0.3,0.3c-0.1,0.1-0.1,0.2-0.1,0.4c0,0.2,0.1,0.3,0.3,0.4
			c0.2,0.1,0.5,0.2,0.8,0.2l2.2,0.1c0.4,0,0.8,0.1,1.1,0.1c0.3,0.1,0.6,0.2,0.9,0.3s0.5,0.3,0.6,0.5c0.1,0.2,0.2,0.4,0.2,0.7
			c0,0.3-0.1,0.6-0.2,0.8c-0.2,0.3-0.4,0.5-0.7,0.7c-0.3,0.2-0.7,0.3-1.3,0.5c-0.5,0.1-1.1,0.2-1.8,0.2c-0.7,0-1.2,0-1.7-0.1
			c-0.5-0.1-0.9-0.2-1.2-0.3c-0.3-0.2-0.5-0.3-0.7-0.5c-0.1-0.2-0.2-0.4-0.2-0.7c0-0.2,0-0.3,0.1-0.4c0-0.1,0.1-0.3,0.2-0.4
			c0.1-0.1,0.2-0.3,0.4-0.4c0.2-0.1,0.3-0.2,0.5-0.3c-0.3-0.1-0.5-0.3-0.7-0.4c-0.1-0.2-0.2-0.4-0.2-0.6c0-0.3,0.1-0.5,0.2-0.8
			c0.2-0.2,0.3-0.4,0.6-0.6c-0.2-0.2-0.3-0.4-0.5-0.6c-0.1-0.2-0.2-0.5-0.2-0.8c0-0.4,0.1-0.7,0.2-1c0.2-0.3,0.4-0.5,0.7-0.7
			c0.3-0.2,0.6-0.3,1-0.5c0.4-0.1,0.8-0.2,1.3-0.2c0.3,0,0.5,0,0.7,0c0.2,0,0.4,0,0.6,0.1h2.5c0.1,0,0.2,0,0.2,0.1
			C229.8,372.4,229.8,372.5,229.8,372.7z M228.2,379.3c0-0.3-0.1-0.5-0.4-0.6c-0.3-0.1-0.7-0.2-1.2-0.2l-2.1-0.1
			c-0.2,0.1-0.4,0.2-0.5,0.3c-0.1,0.1-0.2,0.2-0.3,0.3c-0.1,0.1-0.1,0.2-0.2,0.3c0,0.1,0,0.2,0,0.3c0,0.3,0.2,0.5,0.6,0.7
			c0.4,0.2,1,0.2,1.7,0.2c0.5,0,0.8,0,1.2-0.1c0.3-0.1,0.6-0.2,0.8-0.3c0.2-0.1,0.3-0.2,0.4-0.4S228.2,379.5,228.2,379.3z
			 M227.5,374.4c0-0.4-0.2-0.8-0.5-1c-0.3-0.2-0.8-0.4-1.3-0.4c-0.3,0-0.6,0-0.8,0.1c-0.2,0.1-0.4,0.2-0.5,0.3
			c-0.1,0.1-0.3,0.3-0.3,0.5c-0.1,0.2-0.1,0.3-0.1,0.5c0,0.4,0.2,0.7,0.5,1c0.3,0.2,0.7,0.4,1.3,0.4c0.3,0,0.6,0,0.8-0.1
			c0.2-0.1,0.4-0.2,0.5-0.3c0.1-0.1,0.3-0.3,0.3-0.4C227.4,374.7,227.5,374.5,227.5,374.4z"/>
		<path class="st6" d="M241.5,370.3c0,0.3-0.1,0.5-0.2,0.5c-0.1,0.1-0.4,0.1-0.7,0.1c-0.4,0-0.6,0-0.7-0.1c-0.1-0.1-0.2-0.3-0.2-0.5
			c0-0.3,0.1-0.5,0.2-0.5s0.4-0.1,0.7-0.1c0.4,0,0.6,0,0.7,0.1C241.5,369.8,241.5,370,241.5,370.3z M241.3,378.7
			C241.3,378.7,241.3,378.8,241.3,378.7c-0.1,0.1-0.1,0.1-0.2,0.2c-0.1,0-0.1,0-0.2,0c-0.1,0-0.2,0-0.4,0c-0.2,0-0.3,0-0.4,0
			c-0.1,0-0.2,0-0.2,0c-0.1,0-0.1,0-0.1-0.1c0,0,0-0.1,0-0.1v-6.3c0,0,0-0.1,0-0.1c0,0,0.1,0,0.1-0.1c0.1,0,0.1,0,0.2,0
			c0.1,0,0.2,0,0.4,0c0.2,0,0.3,0,0.4,0c0.1,0,0.2,0,0.2,0c0.1,0,0.1,0,0.1,0.1c0,0,0,0.1,0,0.1V378.7z"/>
		<path class="st6" d="M251.3,377c0,0.3-0.1,0.6-0.2,0.9c-0.2,0.3-0.4,0.5-0.7,0.6s-0.6,0.3-1,0.4s-0.8,0.1-1.3,0.1
			c-0.3,0-0.6,0-0.8-0.1c-0.3,0-0.5-0.1-0.7-0.1c-0.2-0.1-0.4-0.1-0.5-0.2c-0.2-0.1-0.3-0.1-0.3-0.2s-0.1-0.1-0.2-0.2s0-0.2,0-0.3
			c0-0.1,0-0.2,0-0.2c0-0.1,0-0.1,0-0.1c0,0,0-0.1,0.1-0.1c0,0,0.1,0,0.1,0c0.1,0,0.2,0,0.3,0.1c0.1,0.1,0.3,0.1,0.5,0.2
			c0.2,0.1,0.4,0.1,0.7,0.2c0.3,0.1,0.6,0.1,0.9,0.1c0.3,0,0.5,0,0.7-0.1c0.2,0,0.4-0.1,0.5-0.2c0.2-0.1,0.3-0.2,0.4-0.3
			c0.1-0.1,0.1-0.3,0.1-0.4c0-0.2-0.1-0.3-0.2-0.4c-0.1-0.1-0.3-0.2-0.5-0.3c-0.2-0.1-0.4-0.2-0.7-0.2c-0.2-0.1-0.5-0.2-0.8-0.2
			s-0.5-0.2-0.8-0.3s-0.5-0.2-0.7-0.4s-0.4-0.3-0.5-0.5c-0.1-0.2-0.2-0.4-0.2-0.7c0-0.2,0.1-0.5,0.2-0.7c0.1-0.2,0.3-0.4,0.6-0.6
			c0.3-0.2,0.6-0.3,0.9-0.4c0.4-0.1,0.8-0.2,1.3-0.2c0.2,0,0.4,0,0.7,0c0.2,0,0.4,0.1,0.6,0.1c0.2,0,0.3,0.1,0.5,0.1
			c0.1,0,0.2,0.1,0.3,0.1s0.1,0.1,0.1,0.1c0,0,0,0.1,0,0.1c0,0,0,0.1,0,0.1c0,0,0,0.1,0,0.2c0,0.1,0,0.2,0,0.2c0,0.1,0,0.1,0,0.1
			s0,0.1-0.1,0.1s-0.1,0-0.1,0c-0.1,0-0.1,0-0.2-0.1c-0.1-0.1-0.2-0.1-0.4-0.2c-0.2-0.1-0.4-0.1-0.6-0.2c-0.2,0-0.5-0.1-0.8-0.1
			c-0.3,0-0.5,0-0.7,0.1c-0.2,0-0.4,0.1-0.5,0.2c-0.1,0.1-0.2,0.2-0.3,0.3c-0.1,0.1-0.1,0.2-0.1,0.4c0,0.2,0.1,0.3,0.2,0.5
			c0.1,0.1,0.3,0.2,0.5,0.3c0.2,0.1,0.4,0.2,0.7,0.3c0.3,0.1,0.5,0.2,0.8,0.2c0.3,0.1,0.5,0.2,0.8,0.3c0.3,0.1,0.5,0.2,0.7,0.4
			c0.2,0.1,0.4,0.3,0.5,0.5C251.2,376.5,251.3,376.7,251.3,377z"/>
		<path class="st6" d="M268.6,378.7C268.6,378.7,268.5,378.8,268.6,378.7c-0.1,0.1-0.1,0.1-0.2,0.2c-0.1,0-0.1,0-0.2,0
			c-0.1,0-0.2,0-0.3,0c-0.1,0-0.3,0-0.3,0s-0.2,0-0.2,0c-0.1,0-0.1,0-0.1-0.1c0,0,0-0.1,0-0.1v-0.8c-0.5,0.4-0.9,0.7-1.4,0.9
			c-0.5,0.2-0.9,0.3-1.4,0.3c-0.6,0-1-0.1-1.4-0.2c-0.4-0.1-0.7-0.3-0.9-0.6c-0.2-0.2-0.4-0.5-0.5-0.8s-0.2-0.7-0.2-1.2v-3.8
			c0,0,0-0.1,0-0.1c0,0,0.1,0,0.1-0.1c0.1,0,0.1,0,0.2,0c0.1,0,0.2,0,0.4,0c0.1,0,0.3,0,0.4,0c0.1,0,0.2,0,0.2,0
			c0.1,0,0.1,0,0.1,0.1c0,0,0,0.1,0,0.1v3.7c0,0.4,0,0.7,0.1,0.9c0.1,0.2,0.2,0.4,0.3,0.6c0.1,0.2,0.3,0.3,0.5,0.4s0.5,0.1,0.8,0.1
			c0.4,0,0.8-0.1,1.1-0.3c0.4-0.2,0.8-0.5,1.2-0.9v-4.4c0,0,0-0.1,0-0.1c0,0,0.1,0,0.1-0.1c0.1,0,0.1,0,0.2,0c0.1,0,0.2,0,0.4,0
			c0.2,0,0.3,0,0.4,0s0.2,0,0.2,0c0.1,0,0.1,0,0.1,0.1c0,0,0,0.1,0,0.1L268.6,378.7L268.6,378.7z"/>
		<path class="st6" d="M280.4,378.7C280.4,378.7,280.4,378.8,280.4,378.7c-0.1,0.1-0.1,0.1-0.2,0.2c-0.1,0-0.1,0-0.2,0
			c-0.1,0-0.2,0-0.4,0c-0.2,0-0.3,0-0.4,0c-0.1,0-0.2,0-0.2,0c-0.1,0-0.1,0-0.1-0.1c0,0,0-0.1,0-0.1V375c0-0.4,0-0.6-0.1-0.9
			c-0.1-0.2-0.2-0.4-0.3-0.6c-0.1-0.2-0.3-0.3-0.5-0.4s-0.5-0.1-0.8-0.1c-0.4,0-0.8,0.1-1.1,0.3c-0.4,0.2-0.8,0.5-1.2,0.9v4.4
			c0,0,0,0.1,0,0.1c0,0-0.1,0-0.1,0.1c-0.1,0-0.1,0-0.2,0s-0.2,0-0.4,0c-0.2,0-0.3,0-0.4,0c-0.1,0-0.2,0-0.2,0c-0.1,0-0.1,0-0.1-0.1
			c0,0,0-0.1,0-0.1v-6.3c0,0,0-0.1,0-0.1s0.1,0,0.1-0.1c0.1,0,0.1,0,0.2,0c0.1,0,0.2,0,0.3,0c0.1,0,0.2,0,0.3,0c0.1,0,0.2,0,0.2,0
			c0,0,0.1,0,0.1,0.1c0,0,0,0.1,0,0.1v0.8c0.5-0.4,0.9-0.7,1.4-0.9c0.5-0.2,0.9-0.3,1.4-0.3c0.6,0,1,0.1,1.4,0.2
			c0.4,0.1,0.7,0.3,0.9,0.6c0.2,0.2,0.4,0.5,0.5,0.8c0.1,0.3,0.2,0.7,0.2,1.1L280.4,378.7L280.4,378.7z"/>
		<path class="st6" d="M286.7,370.3c0,0.3-0.1,0.5-0.2,0.5s-0.4,0.1-0.7,0.1c-0.4,0-0.6,0-0.7-0.1c-0.1-0.1-0.2-0.3-0.2-0.5
			c0-0.3,0.1-0.5,0.2-0.5s0.4-0.1,0.7-0.1c0.4,0,0.6,0,0.7,0.1C286.7,369.8,286.7,370,286.7,370.3z M286.6,378.7
			C286.6,378.7,286.6,378.8,286.6,378.7c-0.1,0.1-0.1,0.1-0.2,0.2c-0.1,0-0.1,0-0.2,0c-0.1,0-0.2,0-0.4,0c-0.2,0-0.3,0-0.4,0
			c-0.1,0-0.2,0-0.2,0c-0.1,0-0.1,0-0.1-0.1c0,0,0-0.1,0-0.1v-6.3c0,0,0-0.1,0-0.1c0,0,0.1,0,0.1-0.1c0.1,0,0.1,0,0.2,0
			c0.1,0,0.2,0,0.4,0c0.2,0,0.3,0,0.4,0c0.1,0,0.2,0,0.2,0c0.1,0,0.1,0,0.1,0.1c0,0,0,0.1,0,0.1V378.7z"/>
		<path class="st6" d="M298.4,381.2C298.4,381.2,298.3,381.2,298.4,381.2c-0.1,0.1-0.1,0.1-0.2,0.2c-0.1,0-0.1,0-0.2,0
			c-0.1,0-0.2,0-0.4,0c-0.2,0-0.3,0-0.4,0s-0.2,0-0.2,0c-0.1,0-0.1,0-0.1-0.1c0,0,0-0.1,0-0.1V378c-0.3,0.2-0.5,0.3-0.7,0.5
			c-0.2,0.1-0.5,0.2-0.7,0.3c-0.2,0.1-0.4,0.1-0.7,0.2c-0.2,0-0.5,0.1-0.7,0.1c-0.6,0-1.1-0.1-1.5-0.3c-0.4-0.2-0.8-0.4-1-0.7
			c-0.3-0.3-0.5-0.7-0.6-1.1c-0.1-0.4-0.2-0.8-0.2-1.3c0-0.5,0.1-1,0.2-1.5c0.2-0.4,0.4-0.8,0.7-1.1c0.3-0.3,0.7-0.5,1.1-0.7
			c0.4-0.2,1-0.2,1.5-0.2c0.2,0,0.5,0,0.7,0.1c0.2,0,0.4,0.1,0.6,0.2c0.2,0.1,0.4,0.2,0.6,0.3c0.2,0.1,0.5,0.3,0.7,0.5v-0.8
			c0,0,0-0.1,0-0.1c0,0,0.1,0,0.1-0.1c0.1,0,0.1,0,0.2,0c0.1,0,0.2,0,0.3,0c0.1,0,0.2,0,0.3,0c0.1,0,0.2,0,0.2,0c0,0,0.1,0,0.1,0.1
			c0,0,0,0.1,0,0.1L298.4,381.2L298.4,381.2z M296.8,374.3c-0.4-0.4-0.8-0.7-1.2-0.9c-0.4-0.2-0.8-0.3-1.2-0.3c-0.4,0-0.7,0.1-1,0.2
			s-0.5,0.3-0.7,0.5c-0.2,0.2-0.3,0.5-0.4,0.8c-0.1,0.3-0.1,0.6-0.1,0.9c0,0.3,0,0.6,0.1,0.9c0.1,0.3,0.2,0.6,0.3,0.8
			c0.2,0.2,0.4,0.4,0.6,0.6s0.6,0.2,1,0.2c0.2,0,0.4,0,0.6-0.1c0.2,0,0.4-0.1,0.6-0.2c0.2-0.1,0.4-0.2,0.6-0.4
			c0.2-0.2,0.4-0.3,0.7-0.6L296.8,374.3L296.8,374.3z"/>
		<path class="st6" d="M310.2,378.7C310.2,378.7,310.1,378.8,310.2,378.7c-0.1,0.1-0.1,0.1-0.2,0.2c-0.1,0-0.1,0-0.2,0
			c-0.1,0-0.2,0-0.3,0c-0.1,0-0.3,0-0.3,0s-0.2,0-0.2,0c-0.1,0-0.1,0-0.1-0.1c0,0,0-0.1,0-0.1v-0.8c-0.5,0.4-0.9,0.7-1.4,0.9
			s-0.9,0.3-1.4,0.3c-0.6,0-1-0.1-1.4-0.2c-0.4-0.1-0.7-0.3-0.9-0.6c-0.2-0.2-0.4-0.5-0.5-0.8c-0.1-0.3-0.2-0.7-0.2-1.2v-3.8
			c0,0,0-0.1,0-0.1c0,0,0.1,0,0.1-0.1c0.1,0,0.1,0,0.2,0c0.1,0,0.2,0,0.4,0c0.1,0,0.3,0,0.4,0c0.1,0,0.2,0,0.2,0
			c0.1,0,0.1,0,0.1,0.1c0,0,0,0.1,0,0.1v3.7c0,0.4,0,0.7,0.1,0.9c0.1,0.2,0.2,0.4,0.3,0.6c0.1,0.2,0.3,0.3,0.5,0.4s0.5,0.1,0.8,0.1
			c0.4,0,0.8-0.1,1.1-0.3c0.4-0.2,0.8-0.5,1.2-0.9v-4.4c0,0,0-0.1,0-0.1c0,0,0.1,0,0.1-0.1c0.1,0,0.1,0,0.2,0c0.1,0,0.2,0,0.4,0
			c0.2,0,0.3,0,0.4,0s0.2,0,0.2,0c0.1,0,0.1,0,0.1,0.1c0,0,0,0.1,0,0.1L310.2,378.7L310.2,378.7z"/>
		<path class="st6" d="M321.9,375.3c0,0.2-0.1,0.3-0.2,0.4c-0.1,0.1-0.3,0.1-0.4,0.1h-5.5c0,0.3,0,0.7,0.1,0.9
			c0.1,0.3,0.2,0.5,0.5,0.7c0.2,0.2,0.5,0.4,0.8,0.5c0.3,0.1,0.8,0.2,1.3,0.2c0.4,0,0.7,0,1.1-0.1s0.6-0.1,0.8-0.2
			c0.2-0.1,0.4-0.1,0.6-0.2c0.1,0,0.3-0.1,0.3-0.1c0,0,0.1,0,0.1,0c0,0,0.1,0,0.1,0.1c0,0,0,0.1,0,0.1s0,0.1,0,0.2
			c0,0.1,0,0.1,0,0.2s0,0.1,0,0.1s0,0.1,0,0.1c0,0,0,0.1-0.1,0.1c0,0-0.1,0.1-0.3,0.1c-0.2,0.1-0.4,0.1-0.6,0.2
			c-0.3,0.1-0.6,0.1-0.9,0.2c-0.3,0-0.7,0.1-1.1,0.1c-0.7,0-1.3-0.1-1.8-0.2c-0.5-0.1-0.9-0.4-1.3-0.6c-0.3-0.3-0.6-0.6-0.8-1.1
			c-0.2-0.4-0.3-0.9-0.3-1.5c0-0.5,0.1-1,0.3-1.5c0.2-0.4,0.5-0.8,0.8-1.1c0.3-0.3,0.8-0.5,1.3-0.7c0.5-0.2,1-0.2,1.6-0.2
			c0.7,0,1.2,0.1,1.7,0.2c0.5,0.2,0.8,0.4,1.1,0.6c0.3,0.3,0.5,0.6,0.7,0.9c0.1,0.4,0.2,0.7,0.2,1.2L321.9,375.3L321.9,375.3z
			 M320.4,374.9c0-0.6-0.2-1.1-0.5-1.4c-0.4-0.3-0.9-0.5-1.7-0.5c-0.4,0-0.7,0.1-1,0.2c-0.3,0.1-0.5,0.2-0.7,0.4s-0.3,0.4-0.4,0.6
			c-0.1,0.2-0.2,0.5-0.2,0.7L320.4,374.9L320.4,374.9z"/>
	</g>
</g>
</svg>
