<svg id="Layer_1" data-name="Layer 1" xmlns="http://www.w3.org/2000/svg" viewBox="0 0 380.16 146.88"><defs><style>.cls-1{fill:#496e80;}.cls-2{fill:#6d92a3;}.cls-3{fill:#a6c5dd;}.cls-4{fill:#d34f4f;}.cls-5{fill:#ad2323;}</style></defs><title>unicraft</title><g id="logo2"><g id="logo2-2" data-name="logo2"><path class="cls-1" d="M32.16,7.62c.8,0,1.9-.1,1.9,6.2s-.8,16.7-1.9,16.7-1.9-10.4-1.9-16.7S31.36,7.62,32.16,7.62Zm-.1-3.1h0l.1,3c-.8,0-1.9-.1-1.9,6.2v3c.2,6.1.9,13.7,1.8,13.7v46.4c-.8-.5-1.5-1-2.3-1.5,0,1,.1,2,.1,3,.8.5,1.5,1,2.2,1.5a1.38,1.38,0,0,0,.4.3c.6.5.7.7,1,.9a5.74,5.74,0,0,0,.7.4c0-1,.1-2,.1-3.1.1-3.3.2-6.5.3-9.8.2-7.5.4-14.9.6-21.9l.5-19.1c.1-5,.2-9.3.3-12.4v-1.4c.1-3.1.1-4.8.1-4.8v-.2A4.06,4.06,0,0,0,32.06,4.52Zm-.9,109.3c0,1,.1,2,.1,3v.5c.2,2.3.3,4.3.4,5.9.3,3.3.5,5.1.5,5.1s.2-1.9.5-5.1c.1-1.3.2-2.9.3-4.7,0-.4.1-.8.1-1.2a4.87,4.87,0,0,1,.1-1.2,10.63,10.63,0,0,1-.9-1.1A12,12,0,0,1,31.16,113.82Z"/><path class="cls-1" d="M34.26,81.42v.7c0,1.3-.1,2.6-.1,3.8-.3,8.7-.5,16.9-.7,23.7-.1,2.3-.2,4.5-.3,6.4a10.63,10.63,0,0,1-.9-1.1V79.82a1.38,1.38,0,0,0,.4.3c.6.5.7.7,1,.9A.72.72,0,0,0,34.26,81.42Z"/><path class="cls-2" d="M30.36,13.82v3c.2,6.1.9,13.7,1.8,13.7v46.4c-.8-.5-1.5-1-2.3-1.5-.1-2.3-.1-4.5-.2-6.8-.2-7.5-.4-14.9-.6-21.9s-.3-13.5-.5-19.1c-.1-3.8-.2-7.1-.2-9.9V16c-.1-4.4-.2-7.1-.2-7.1A4.29,4.29,0,0,1,32,4.52h.1v3C31.36,7.62,30.36,7.52,30.36,13.82Z"/><path class="cls-2" d="M32.16,79.92V115a10.59,10.59,0,0,1-1-1.2c-.1-1.3-.1-2.7-.2-4.2-.2-5.8-.4-12.6-.6-19.9,0-1.1-.1-2.3-.1-3.4-.1-2.6-.2-5.3-.2-8C30.76,78.92,31.46,79.32,32.16,79.92Z"/><path class="cls-3" d="M32.16,76.82v3c-.7-.5-1.4-1-2.2-1.5,0-1-.1-2-.1-3C30.66,75.82,31.46,76.32,32.16,76.82Z"/><path class="cls-2" d="M31.16,113.82c.3.4.7.8,1,1.2v13.3s-.2-1.9-.5-5.1c-.1-1.6-.2-3.6-.4-5.9v-.5C31.26,115.82,31.16,114.82,31.16,113.82Z"/><path class="cls-4" d="M30.36,16.82v-1.6a53,53,0,0,1,5.7-1.5c1.2-.2,2.3-.4,3.5-.5a84.43,84.43,0,0,1,13.3-.3,35,35,0,0,0,6.5-.4,17.73,17.73,0,0,0,6.2-2.2,18.27,18.27,0,0,1-6.1,2.5,29.62,29.62,0,0,1-6.6.7,95,95,0,0,0-13.1.9c-1.2.2-2.5.4-3.7.7A34.28,34.28,0,0,0,30.36,16.82Z"/><path class="cls-4" d="M36.46,81.72c0,.3-.1.5-.1.8a2.07,2.07,0,0,0-.2.6c-.1.3-.3.5-.4.8-.3.5-.7,1-1,1.5-.2.2-.3.4-.5.6,0-1.3.1-2.5.1-3.8.3-.2.5-.2.5-.4s-.2-.2-.5-.3a5.74,5.74,0,0,1-.7-.4c-.4-.3-.5-.5-1-.9a1.38,1.38,0,0,0-.4-.3c-.7-.5-1.4-1-2.2-1.5s-1.9-1.2-2.9-1.8c-1.9-1.2-3.8-2.4-5.6-3.8a41.68,41.68,0,0,1-9.5-9.7,29.45,29.45,0,0,1-4.6-12.9,31.84,31.84,0,0,1,.1-6.9,28.94,28.94,0,0,1,1.6-6.6,38.66,38.66,0,0,1,2.9-6.2c.5-1,1.2-1.9,1.8-2.9A26.5,26.5,0,0,1,16,25a43.72,43.72,0,0,1,4.9-4.7,34.13,34.13,0,0,1,5.7-3.6,14.17,14.17,0,0,1,1.8-.8v1.7a5.36,5.36,0,0,1-1.1.5,27.49,27.49,0,0,0-5.3,3.6,32.62,32.62,0,0,0-4.5,4.6c-.7.8-1.3,1.7-2,2.6s-1.2,1.8-1.7,2.7a30.22,30.22,0,0,0-2.6,5.8,32.75,32.75,0,0,0-1.4,6.2,33.15,33.15,0,0,0,0,6.3,26.35,26.35,0,0,0,4.3,11.8,38.41,38.41,0,0,0,8.9,9.1c1.7,1.3,3.5,2.5,5.4,3.7l1.5.9c.8.5,1.5.9,2.3,1.5.6.4,1.3.9,1.9,1.3.1.1.2.2.3.2a11.41,11.41,0,0,1,1.1,1.1A3.77,3.77,0,0,1,36.46,81.72Z"/><path class="cls-4" d="M72.26,142.12a106.31,106.31,0,0,1-23.9-11.2,102.67,102.67,0,0,1-10.7-8c-1.6-1.4-3.2-2.9-4.7-4.4l-.8-.8-.9-.9c-1-1.1-2-2.2-3-3.4a36.71,36.71,0,0,1-3.8-5.6,16.86,16.86,0,0,1-2-6.7,11,11,0,0,1,.3-3.6,16.21,16.21,0,0,1,1.3-3.3,36.86,36.86,0,0,1,4-5.5c.7-.8,1.4-1.5,2.1-2.2,0,1.1.1,2.3.1,3.4l-.4.4c-2.8,3.2-5.6,6.7-5.2,10.7a15.92,15.92,0,0,0,1.7,5.9,30.58,30.58,0,0,0,3.4,5.4,18.26,18.26,0,0,0,1.3,1.6c.3.4.7.8,1,1.2s.6.7.9,1.1c1.8,2,3.7,3.9,5.6,5.7a73.46,73.46,0,0,0,10.3,8.1A129.66,129.66,0,0,0,72.26,142.12Z"/></g><path class="cls-5" d="M102.86,123.62a7.12,7.12,0,0,1-5.7-3,11.17,11.17,0,0,1-2.4-7.2v-2c0-.8.1-1.8.1-2.7a33.31,33.31,0,0,1-8,10,17.06,17.06,0,0,1-11.3,3.9c-4,0-7.2-1.2-9.5-3.6s-3.4-5.8-3.4-10.1a39,39,0,0,1,1.1-8.6q1-4.65,2.7-9.6c1.1-3.3,2.2-6.7,3.3-10a97.66,97.66,0,0,0,2.7-9.9,44.25,44.25,0,0,0,1.1-9.2c0-5.4-1.6-8.1-4.9-8.1a6.36,6.36,0,0,0-4.2,1.5,14.14,14.14,0,0,0-2.9,3.8,20.38,20.38,0,0,0-1.7,4.7,16.07,16.07,0,0,0-.5,4,10.12,10.12,0,0,0,.4,2.9,20.16,20.16,0,0,0,.8,2.9c-2.9,0-5-.7-6.2-2a7.21,7.21,0,0,1-1.9-5,13.29,13.29,0,0,1,1.4-5.7,21.25,21.25,0,0,1,3.8-5.4,19.4,19.4,0,0,1,5.8-4,17.19,17.19,0,0,1,7.2-1.5c3.7,0,6.4,1.1,8,3.2s2.5,4.9,2.5,8.5a41.61,41.61,0,0,1-.8,7.4,73.61,73.61,0,0,1-2.1,8.4c-.8,2.9-1.7,5.7-2.5,8.4-1.5,4.9-2.7,9.1-3.7,12.7a36.37,36.37,0,0,0-1.5,9.6,13.69,13.69,0,0,0,1.7,7c1.1,1.9,3.1,2.9,5.8,2.9a11.38,11.38,0,0,0,6.8-2.3,21,21,0,0,0,5.4-6,42.81,42.81,0,0,0,3.9-7.7,44,44,0,0,0,2.4-7.6c.8-3.6,1.8-7.4,2.8-11.4s2.1-8,3.2-12,2.2-7.5,3.4-10.7a43.13,43.13,0,0,1,3.4-7.6c1.1-1.9,2.2-2.9,3.3-2.9a5.09,5.09,0,0,1,2.5,1,15,15,0,0,1,3.3,2.6,15.46,15.46,0,0,0-2.4,3.8c-1,2.1-2.2,4.8-3.4,8.1s-2.5,7-3.8,11-2.5,8.1-3.5,12.3-1.9,8.2-2.6,12.1a58.37,58.37,0,0,0-1,10.3c0,3.7.6,6.2,1.9,7.4s3.5,1.8,6.6,1.8a6.93,6.93,0,0,1-3.3,2.7A9.78,9.78,0,0,1,102.86,123.62Z"/><path class="cls-5" d="M146,116.52a7.49,7.49,0,0,1-5.4-1.8,6.19,6.19,0,0,1-1.9-4.5,13.06,13.06,0,0,1,.6-3.8c.4-1.3.8-2.7,1.3-4.1a14.38,14.38,0,0,0,.6-4,3.43,3.43,0,0,0-1-2.8,3.49,3.49,0,0,0-2.2-.8,9.08,9.08,0,0,0-5.6,2.2,32.54,32.54,0,0,0-5.5,5.6,68.52,68.52,0,0,0-5,7c-1.6,2.4-2.9,4.6-4.1,6.5a9.6,9.6,0,0,1-3.3-.6,6.3,6.3,0,0,1-2.6-2c.1-.3.4-1.2,1-2.8s1.3-3.4,2.1-5.5a65.59,65.59,0,0,0,2.1-6.7A26.52,26.52,0,0,0,118,92a7.85,7.85,0,0,1,1.9-1.5,5.55,5.55,0,0,1,2.8-.7c2.1,0,3.2.9,3.2,2.7a16,16,0,0,1-.4,3.2c-.3,1.4-.7,3-1.1,4.8a58.81,58.81,0,0,1,5.2-6,30,30,0,0,1,5.8-4.6,11.91,11.91,0,0,1,6.1-1.8,6.52,6.52,0,0,1,5.7,2.6,10.05,10.05,0,0,1,1.9,5.8,14.4,14.4,0,0,1-.9,5.1c-.6,1.6-1.2,3-1.8,4.4a10.13,10.13,0,0,0-.9,4.1,2.32,2.32,0,0,0,.7,2,2.4,2.4,0,0,0,1.5.6,6.67,6.67,0,0,0,4.5-2.1,26.67,26.67,0,0,0,4.5-5.3,61.12,61.12,0,0,0,3.8-6.5l1.5,1.3a51.36,51.36,0,0,1-4.3,8.1,25.53,25.53,0,0,1-5.3,5.9A9.43,9.43,0,0,1,146,116.52Z"/><path class="cls-5" d="M165.56,117.42a7.41,7.41,0,0,1-6-2.4,8.29,8.29,0,0,1-2-5.7,22.63,22.63,0,0,1,.7-5.2c.5-2.1,1.2-4.3,2-6.7a66.2,66.2,0,0,1,3-6.6,20.3,20.3,0,0,1,3.7-5,5.74,5.74,0,0,1,4-1.9,2.64,2.64,0,0,1,1.9.7,2.56,2.56,0,0,1,.8,1.9,8,8,0,0,1-1.4,3.5c-.9,1.5-2,3.4-3.3,5.4s-2.3,4.2-3.3,6.4a15,15,0,0,0-1.4,6.3c0,1.9.3,3.2,1,3.8a4.5,4.5,0,0,0,3,1c2.1,0,4.3-1,6.7-3.1s4.9-5.6,7.5-10.8l1.4,1.5a32.61,32.61,0,0,1-8.1,12.4A14.23,14.23,0,0,1,165.56,117.42Zm10.7-40.8a5.61,5.61,0,0,1-3.1-.9,3.07,3.07,0,0,1-1.4-2.7,4.3,4.3,0,0,1,2.4-3.7,9.06,9.06,0,0,1,4.9-1.5,5.07,5.07,0,0,1,2.8.7,2.8,2.8,0,0,1,1.1,2.6,5,5,0,0,1-2.1,3.7A7.25,7.25,0,0,1,176.26,76.62Z"/><path class="cls-5" d="M203.06,122.52a18.46,18.46,0,0,1-11.3-3.3,19,19,0,0,1-6.4-8.4,29.88,29.88,0,0,1-2-10.7,47.34,47.34,0,0,1,2.2-14.3,67,67,0,0,1,6-13.7,68.88,68.88,0,0,1,8.7-11.6,39.07,39.07,0,0,1,10.5-8,24.51,24.51,0,0,1,11.1-2.9,11.05,11.05,0,0,1,6.7,1.9c1.8,1.2,2.7,3.4,2.7,6.4a20.89,20.89,0,0,1-1,6.1,39.58,39.58,0,0,1-2.5,6.5,20.82,20.82,0,0,1-3.6,5.1,5.92,5.92,0,0,1-4.1,2,3.81,3.81,0,0,1-1.9-.6,4.56,4.56,0,0,1-1.8-2.2c.9-1,1.9-2.3,3.1-3.8s2.2-3,3.3-4.7a32.46,32.46,0,0,0,2.5-4.9,10.58,10.58,0,0,0,1-4.2,3.74,3.74,0,0,0-.9-2.6,4.52,4.52,0,0,0-3.2-1,14.07,14.07,0,0,0-8.2,3,40.64,40.64,0,0,0-8.1,8,68.69,68.69,0,0,0-7,11.2,66.24,66.24,0,0,0-4.9,12.8,47.18,47.18,0,0,0-1.8,12.5,25.32,25.32,0,0,0,1.3,8.3,14.36,14.36,0,0,0,4.2,6.4,11.06,11.06,0,0,0,7.6,2.5,19.51,19.51,0,0,0,9.7-2.7,35.23,35.23,0,0,0,8.9-7.2,42.2,42.2,0,0,0,6.5-9.5l2.4,1.5a56,56,0,0,1-7.6,11.1,38.31,38.31,0,0,1-10,8.1A27.27,27.27,0,0,1,203.06,122.52Z"/><path class="cls-5" d="M245.06,117a8,8,0,0,1-5.4-1.8,6,6,0,0,1-2.1-4.8,12.54,12.54,0,0,1,1.3-5.4c.8-1.9,1.7-3.8,2.6-5.7a11.6,11.6,0,0,0,1.3-5,5,5,0,0,0-1.4-3.5,12.44,12.44,0,0,0-3.2-2.3,83.9,83.9,0,0,1-4.5,9.6c-1.7,3.1-3,5.5-4,7.3l-1.4-2.6c.8-1.6,2-3.8,3.3-6.7a102,102,0,0,0,4-9.7,3.24,3.24,0,0,1-.9-2.4,7.31,7.31,0,0,1,1.5-4.4c1-1.4,1.9-2.1,2.8-2.1a1.68,1.68,0,0,1,1.6,1.2,6.76,6.76,0,0,1,.5,1.7,5,5,0,0,1-.4,1.6c-.3.8-.5,1.4-.6,1.7a2.82,2.82,0,0,0,1.6,1.9c1,.6,2.1,1.4,3.4,2.2a11.17,11.17,0,0,1,3.3,3.2,7.64,7.64,0,0,1,1.5,4.8,12.75,12.75,0,0,1-1.2,5.3q-1.2,2.7-2.4,5.1a9.3,9.3,0,0,0-1.2,4.1,1.83,1.83,0,0,0,.7,1.7,2.93,2.93,0,0,0,1.6.4,8.61,8.61,0,0,0,4.5-1.3,23.7,23.7,0,0,0,4.6-3.4,40.79,40.79,0,0,0,4-4.4,25.38,25.38,0,0,0,2.6-4.2l2.2,1.6a30.56,30.56,0,0,1-5,7.7,32.07,32.07,0,0,1-7.2,6.2A14.91,14.91,0,0,1,245.06,117Z"/><path class="cls-5" d="M266.26,118.92a7.69,7.69,0,0,1-5.2-2c-1.5-1.3-2.2-3.3-2.2-6a18.72,18.72,0,0,1,1.5-6.9,35,35,0,0,1,4-7.3,40.35,40.35,0,0,1,5.8-6.6,32.28,32.28,0,0,1,7-4.8,16.79,16.79,0,0,1,7.4-1.8,11,11,0,0,1,6.6,2,6.19,6.19,0,0,1,2.7,5.2,3.9,3.9,0,0,1-1.7,3.5,5.57,5.57,0,0,1-4.1.6c.1-.5.2-1.1.3-1.6a9.15,9.15,0,0,0,.1-1.7,7.25,7.25,0,0,0-.7-3.3c-.5-1-1.5-1.5-3.1-1.5a10,10,0,0,0-5.2,1.7,20.81,20.81,0,0,0-5,4.5,39.11,39.11,0,0,0-4.3,6.1,34,34,0,0,0-3,6.5,18.4,18.4,0,0,0-1.1,5.7c0,1.9.7,2.9,2.1,2.9a7.92,7.92,0,0,0,4.6-2,40.87,40.87,0,0,0,5.1-5.1c1.7-2.1,3.4-4.1,4.9-6.3s2.9-4,4.1-5.5c.2-.3.4-.5.7-.5s.7.2,1.4.4a5,5,0,0,1,1.9,1,1.92,1.92,0,0,1,.9,1.6,5.26,5.26,0,0,1-.8,2.3c-.5.9-1.1,2-1.8,3.1a26.85,26.85,0,0,0-1.8,3.3,7.94,7.94,0,0,0-.8,3.2,4.28,4.28,0,0,0,.6,2.2,2.18,2.18,0,0,0,2.1,1c1.5,0,3.5-1.1,6.1-3.2s5.3-5.8,8-10.9l1.7,1.7a40.11,40.11,0,0,1-5.2,8.6,25.09,25.09,0,0,1-6.4,5.9,12.59,12.59,0,0,1-6.8,2.1,6.39,6.39,0,0,1-5.5-2.4,9.32,9.32,0,0,1-2-5.1V109a49.44,49.44,0,0,1-6.7,6.9A7.46,7.46,0,0,1,266.26,118.92Z"/><path class="cls-5" d="M301.36,140a6,6,0,0,1-2.4-.6,5.31,5.31,0,0,1-2.4-2.5,11.66,11.66,0,0,1-1-5.6,50.39,50.39,0,0,1,1.3-10.2c.9-4.2,2.1-8.8,3.6-13.9s3.3-10.3,5.4-15.7,4.3-10.5,6.7-15.5a126,126,0,0,1,7.4-13.4,46.46,46.46,0,0,1,7.7-9.5c2.5-2.4,5-3.5,7.3-3.5,1.6,0,2.6.5,3.1,1.4a6.57,6.57,0,0,1,.7,3.2,20.75,20.75,0,0,1-2.1,8.5A46.62,46.62,0,0,1,331,72a73,73,0,0,1-7.9,8.8,59.18,59.18,0,0,1-9,7.2c-.2.6-.5,1.2-.7,1.8s-.5,1.2-.7,1.8a2.93,2.93,0,0,1,1.6,1.3,4.38,4.38,0,0,1,.7,1.9q.75,3.9,1.5,6.9a11.88,11.88,0,0,0,2.2,4.8,5.49,5.49,0,0,0,4.3,1.7,7.73,7.73,0,0,0,5.6-2.4,35.26,35.26,0,0,0,5-6.6l2,1.5a22.93,22.93,0,0,1-6.5,8.5c-2.4,1.8-4.6,2.7-6.5,2.7a9.48,9.48,0,0,1-3.2-.6,11.37,11.37,0,0,1-3.2-1.8,60,60,0,0,1-1.3,11.1,46,46,0,0,1-3.3,9.9,25.77,25.77,0,0,1-4.7,7.1C304.86,139.12,303.16,140,301.36,140Zm2.5-5.6c.7,0,1.4-.6,2.1-1.7a21,21,0,0,0,2.2-4.5,64.84,64.84,0,0,0,2-6.2c.6-2.3,1.1-4.5,1.5-6.7a33,33,0,0,0,.5-6,16.76,16.76,0,0,0-.6-4.7,24.69,24.69,0,0,0-2-4.6c-1.4,4.2-2.6,8.2-3.7,12s-1.9,7.4-2.5,10.5a44.24,44.24,0,0,0-.9,7.9C302.36,133.12,302.86,134.42,303.86,134.42Zm12.8-52.9a94.38,94.38,0,0,0,9.4-10,58.06,58.06,0,0,0,5.9-8.6c1.4-2.5,2-4.3,2-5.3,0-.5-.2-.7-.7-.7-1.5,0-3.1,1.1-5,3.3a50.87,50.87,0,0,0-5.8,8.9C320.46,72.82,318.56,77,316.66,81.52Z"/><path class="cls-5" d="M339.56,118.82a8.6,8.6,0,0,1-6.4-2.4c-1.6-1.6-2.4-3.9-2.4-7.2a39.61,39.61,0,0,1,1.4-9.2,98.88,98.88,0,0,1,3.6-11.4q-.6-.15-1.5-.3a10.93,10.93,0,0,1-1.7-.5V85q1.5.15,2.4.3c.6.1,1.3.1,1.9.2,1.3-3.2,2.6-6.3,4.1-9.3s3-5.7,4.4-8a36.84,36.84,0,0,1,4.2-5.6c1.3-1.4,2.5-2,3.5-2a2.34,2.34,0,0,1,1.7.7,2.63,2.63,0,0,1,.8,2c0,1.2-.6,2.9-1.9,5.2s-2.8,4.8-4.6,7.8-3.6,6.2-5.2,9.5h2.9c2.7,0,5.1,0,7.2-.1s4.3-.3,6.6-.5v3c-3.3.3-6.4.5-9.1.7s-5.4.3-8,.4h-1a76.23,76.23,0,0,0-3.3,9.1,32.47,32.47,0,0,0-1.4,9.1c0,2.5.4,4.2,1.2,5.2a4.41,4.41,0,0,0,3.7,1.5c3,0,6.1-1.4,9.3-4.1a35.54,35.54,0,0,0,8.3-11.2l1.3.9a44.52,44.52,0,0,1-5.8,9.7,26.83,26.83,0,0,1-7.6,6.8A16.66,16.66,0,0,1,339.56,118.82Z"/></g></svg>