<?xml version="1.0" encoding="utf-8"?>
<!-- Generator: Adobe Illustrator 24.0.1, SVG Export Plug-In . SVG Version: 6.00 Build 0)  -->
<svg version="1.1" id="Layer_1" xmlns="http://www.w3.org/2000/svg" xmlns:xlink="http://www.w3.org/1999/xlink" x="0px" y="0px"
	 viewBox="0 0 402.8 172.8" style="enable-background:new 0 0 402.8 172.8;" xml:space="preserve">
<style type="text/css">
	.st0{display:none;fill:#969696;}
	.st1{fill:#496E80;}
	.st2{fill:#6D92A3;}
	.st3{fill:#A6C5DD;}
	.st4{fill:#D34F4F;}
	.st5{fill:#AD2323;}
	.st6{fill:#605B5B;}
</style>
<g id="logo2_1_">
	<g id="logo2">
		<path class="st0" d="M51.3,27.5c0.1,5.6,0.3,12.1,0.5,19.1s0.4,14.5,0.6,21.9c0.5,14.9,0.9,29.8,1.3,41c0.1,2.8,0.2,5.4,0.3,7.6
			c0.2,2.3,0.3,4.3,0.4,5.9c0.3,3.3,0.5,5.1,0.5,5.1s0.2-1.9,0.5-5.1c0.1-1.6,0.2-3.6,0.4-5.9c0.1-2.3,0.2-4.8,0.3-7.6
			c0.3-11.2,0.8-26.1,1.3-41c0.2-7.5,0.4-14.9,0.6-21.9c0.2-7,0.3-13.5,0.5-19.1c0.2-11.2,0.4-18.7,0.4-18.7c0-0.1,0-0.1,0-0.2
			c0-2.4-1.8-4.2-4-4.2c-2.2,0.1-3.9,2-3.8,4.4C50.9,8.9,51,16.3,51.3,27.5z M54.8,7.6c0.8,0,1.9-0.1,1.9,6.2s-0.8,16.7-1.9,16.7
			c-1,0-1.9-10.4-1.9-16.7C53,7.5,54,7.6,54.8,7.6z"/>
		<rect x="56.6" y="10.8" class="st0" width="2" height="6.7"/>
		<path class="st1" d="M54.8,7.6c0.8,0,1.9-0.1,1.9,6.2s-0.8,16.7-1.9,16.7c-1,0-1.9-10.4-1.9-16.7C53,7.5,54,7.6,54.8,7.6z
			 M54.7,4.5C54.7,4.5,54.8,4.5,54.7,4.5l0.1,3c-0.8,0-1.9-0.1-1.9,6.2c0,0.5,0,0.9,0,1.4s0,1,0,1.6c0.2,6.1,0.9,13.7,1.8,13.7v46.4
			c-0.8-0.5-1.5-1-2.3-1.5c0,1,0.1,2,0.1,3c0.8,0.5,1.5,1,2.2,1.5c0.1,0.1,0.2,0.2,0.4,0.3c0.6,0.5,0.7,0.7,1,0.9
			c0.3,0.2,0.5,0.3,0.7,0.4c0-1,0.1-2,0.1-3.1c0.1-3.3,0.2-6.5,0.3-9.8c0.2-7.5,0.4-14.9,0.6-21.9l0.5-19.1c0.1-5,0.2-9.3,0.3-12.4
			c0-0.5,0-1,0-1.4c0.1-3.1,0.1-4.8,0.1-4.8V8.7C58.7,6.3,56.9,4.5,54.7,4.5z M53.8,113.8c0,1,0.1,2,0.1,3c0,0.2,0,0.3,0,0.5
			c0.2,2.3,0.3,4.3,0.4,5.9c0.3,3.3,0.5,5.1,0.5,5.1s0.2-1.9,0.5-5.1c0.1-1.3,0.2-2.9,0.3-4.7c0-0.4,0.1-0.8,0.1-1.2
			c0-0.4,0-0.8,0.1-1.2c-0.3-0.3-0.6-0.7-0.9-1.1C54.5,114.6,54.1,114.2,53.8,113.8z"/>
		<path class="st1" d="M56.9,81.4v0.7c0,1.3-0.1,2.6-0.1,3.8c-0.3,8.7-0.5,16.9-0.7,23.7c-0.1,2.3-0.2,4.5-0.3,6.4
			c-0.3-0.3-0.6-0.7-0.9-1.1V79.8c0.1,0.1,0.2,0.2,0.4,0.3c0.6,0.5,0.7,0.7,1,0.9C56.5,81.3,56.7,81.4,56.9,81.4z"/>
		<path class="st2" d="M53,13.8c0,0.5,0,0.9,0,1.4s0,1,0,1.6c0.2,6.1,0.9,13.7,1.8,13.7v46.4c-0.8-0.5-1.5-1-2.3-1.5
			c-0.1-2.3-0.1-4.5-0.2-6.8c-0.2-7.5-0.4-14.9-0.6-21.9c-0.2-7-0.3-13.5-0.5-19.1c-0.1-3.8-0.2-7.1-0.2-9.9c0-0.6,0-1.1,0-1.7
			c-0.1-4.4-0.2-7.1-0.2-7.1c0-2.3,1.7-4.3,3.8-4.4h0.1v3C54,7.6,53,7.5,53,13.8z"/>
		<path class="st2" d="M54.8,79.9V115c-0.4-0.4-0.7-0.8-1-1.2c-0.1-1.3-0.1-2.7-0.2-4.2c-0.2-5.8-0.4-12.6-0.6-19.9
			c0-1.1-0.1-2.3-0.1-3.4c-0.1-2.6-0.2-5.3-0.2-8C53.4,78.9,54.1,79.3,54.8,79.9z"/>
		<path class="st3" d="M54.8,76.8v3c-0.7-0.5-1.4-1-2.2-1.5c0-1-0.1-2-0.1-3C53.3,75.8,54.1,76.3,54.8,76.8z"/>
		<path class="st2" d="M53.8,113.8c0.3,0.4,0.7,0.8,1,1.2v13.3c0,0-0.2-1.9-0.5-5.1c-0.1-1.6-0.2-3.6-0.4-5.9c0-0.2,0-0.3,0-0.5
			C53.9,115.8,53.8,114.8,53.8,113.8z"/>
		<path class="st4" d="M53,16.8c0-0.5,0-1.1,0-1.6c1.8-0.6,3.8-1.1,5.7-1.5c1.2-0.2,2.3-0.4,3.5-0.5c4.4-0.5,8.9-0.5,13.3-0.3
			c2.2,0,4.4,0,6.5-0.4s4.3-1,6.2-2.2c-1.8,1.2-3.9,2-6.1,2.5s-4.4,0.7-6.6,0.7c-4.4,0.1-8.8,0.2-13.1,0.9c-1.2,0.2-2.5,0.4-3.7,0.7
			C56.7,15.5,54.8,16.1,53,16.8z"/>
		<path class="st4" d="M59.1,81.7c0,0.3-0.1,0.5-0.1,0.8c-0.1,0.2-0.2,0.5-0.2,0.6c-0.1,0.3-0.3,0.5-0.4,0.8c-0.3,0.5-0.7,1-1,1.5
			c-0.2,0.2-0.3,0.4-0.5,0.6c0-1.3,0.1-2.5,0.1-3.8c0.3-0.2,0.5-0.2,0.5-0.4c0-0.1-0.2-0.2-0.5-0.3c-0.2-0.1-0.4-0.2-0.7-0.4
			c-0.4-0.3-0.5-0.5-1-0.9c-0.1-0.1-0.2-0.2-0.4-0.3c-0.7-0.5-1.4-1-2.2-1.5c-0.9-0.6-1.9-1.2-2.9-1.8c-1.9-1.2-3.8-2.4-5.6-3.8
			c-3.6-2.7-6.9-5.9-9.5-9.7c-2.5-3.8-4.1-8.3-4.6-12.9c-0.2-2.3-0.2-4.6,0.1-6.9c0.3-2.3,0.8-4.5,1.6-6.6s1.7-4.2,2.9-6.2
			c0.5-1,1.2-1.9,1.8-2.9c0.7-0.9,1.3-1.8,2.1-2.6c1.5-1.7,3.1-3.2,4.9-4.7c1.8-1.4,3.7-2.6,5.7-3.6c0.6-0.3,1.2-0.6,1.8-0.8
			c0,0.5,0,1.1,0,1.7c-0.4,0.2-0.7,0.4-1.1,0.5c-1.9,1-3.7,2.2-5.3,3.6c-1.6,1.4-3.2,2.9-4.5,4.6c-0.7,0.8-1.3,1.7-2,2.6
			c-0.6,0.9-1.2,1.8-1.7,2.7c-1.1,1.8-1.9,3.8-2.6,5.8c-0.7,2-1.1,4.1-1.4,6.2c-0.2,2.1-0.2,4.2,0,6.3c0.5,4.2,1.9,8.3,4.3,11.8
			c2.3,3.5,5.5,6.5,8.9,9.1c1.7,1.3,3.5,2.5,5.4,3.7c0.5,0.3,1,0.6,1.5,0.9c0.8,0.5,1.5,0.9,2.3,1.5c0.6,0.4,1.3,0.9,1.9,1.3
			c0.1,0.1,0.2,0.2,0.3,0.2c0.4,0.3,0.7,0.7,1.1,1.1C58.5,79.9,59,80.7,59.1,81.7z"/>
		<path class="st4" d="M94.9,142.1c-8.4-2.7-16.4-6.5-23.9-11.2c-3.7-2.4-7.3-5.1-10.7-8c-1.6-1.4-3.2-2.9-4.7-4.4
			c-0.3-0.3-0.5-0.5-0.8-0.8s-0.6-0.6-0.9-0.9c-1-1.1-2-2.2-3-3.4c-1.4-1.7-2.7-3.6-3.8-5.6c-1-2-1.9-4.3-2-6.7
			c-0.1-1.2,0-2.4,0.3-3.6s0.8-2.3,1.3-3.3c1.1-2,2.6-3.8,4-5.5c0.7-0.8,1.4-1.5,2.1-2.2c0,1.1,0.1,2.3,0.1,3.4
			c-0.1,0.1-0.3,0.3-0.4,0.4c-2.8,3.2-5.6,6.7-5.2,10.7c0.1,2,0.8,4,1.7,5.9s2.1,3.7,3.4,5.4c0.4,0.5,0.8,1.1,1.3,1.6
			c0.3,0.4,0.7,0.8,1,1.2c0.3,0.4,0.6,0.7,0.9,1.1c1.8,2,3.7,3.9,5.6,5.7c3.2,3,6.6,5.7,10.3,8.1C78.9,134.8,86.7,138.9,94.9,142.1z
			"/>
	</g>
	<g>
		<path class="st5" d="M125.5,123.6c-2.2,0-4.1-1-5.7-3s-2.4-4.4-2.4-7.2c0-0.5,0-1.1,0-2c0-0.8,0.1-1.8,0.1-2.7
			c-2.2,4-4.8,7.4-8,10c-3.1,2.6-6.9,3.9-11.3,3.9c-4,0-7.2-1.2-9.5-3.6s-3.4-5.8-3.4-10.1c0-2.7,0.4-5.5,1.1-8.6s1.6-6.3,2.7-9.6
			c1.1-3.3,2.2-6.7,3.3-10c1.1-3.3,2-6.7,2.7-9.9c0.7-3.3,1.1-6.3,1.1-9.2c0-5.4-1.6-8.1-4.9-8.1c-1.6,0-3,0.5-4.2,1.5
			c-1.1,1-2.1,2.3-2.9,3.8s-1.3,3.1-1.7,4.7c-0.4,1.6-0.5,2.9-0.5,4c0,0.9,0.1,1.9,0.4,2.9c0.2,1.1,0.5,2,0.8,2.9
			c-2.9,0-5-0.7-6.2-2s-1.9-3-1.9-5c0-1.9,0.5-3.8,1.4-5.7c0.9-1.9,2.2-3.7,3.8-5.4c1.7-1.7,3.6-3,5.8-4s4.6-1.5,7.2-1.5
			c3.7,0,6.4,1.1,8,3.2c1.7,2.1,2.5,4.9,2.5,8.5c0,2.2-0.3,4.7-0.8,7.4c-0.5,2.7-1.2,5.5-2.1,8.4c-0.8,2.9-1.7,5.7-2.5,8.4
			c-1.5,4.9-2.7,9.1-3.7,12.7s-1.5,6.8-1.5,9.6c0,2.8,0.6,5.1,1.7,7s3.1,2.9,5.8,2.9c2.5,0,4.7-0.8,6.8-2.3s3.8-3.5,5.4-6
			c1.5-2.4,2.9-5,3.9-7.7c1.1-2.7,1.9-5.2,2.4-7.6c0.8-3.6,1.8-7.4,2.8-11.4s2.1-8,3.2-12c1.1-3.9,2.2-7.5,3.4-10.7
			c1.1-3.2,2.3-5.7,3.4-7.6c1.1-1.9,2.2-2.9,3.3-2.9c0.6,0,1.4,0.3,2.5,1c1.1,0.6,2.2,1.5,3.3,2.6c-0.5,0.4-1.3,1.7-2.4,3.8
			c-1,2.1-2.2,4.8-3.4,8.1c-1.3,3.3-2.5,7-3.8,11s-2.5,8.1-3.5,12.3c-1.1,4.2-1.9,8.2-2.6,12.1s-1,7.3-1,10.3c0,3.7,0.6,6.2,1.9,7.4
			s3.5,1.8,6.6,1.8c-0.7,1.1-1.8,2.1-3.3,2.7C128.3,123.3,126.9,123.6,125.5,123.6z"/>
		<path class="st5" d="M168.6,116.5c-2.4,0-4.1-0.6-5.4-1.8c-1.2-1.2-1.9-2.7-1.9-4.5c0-1.2,0.2-2.5,0.6-3.8s0.8-2.7,1.3-4.1
			c0.4-1.4,0.6-2.7,0.6-4s-0.3-2.2-1-2.8c-0.6-0.5-1.4-0.8-2.2-0.8c-1.8,0-3.7,0.7-5.6,2.2c-1.9,1.5-3.7,3.3-5.5,5.6
			c-1.8,2.2-3.5,4.6-5,7c-1.6,2.4-2.9,4.6-4.1,6.5c-1.1,0-2.2-0.2-3.3-0.6c-1-0.4-1.9-1.1-2.6-2c0.1-0.3,0.4-1.2,1-2.8
			c0.6-1.5,1.3-3.4,2.1-5.5s1.5-4.4,2.1-6.7c0.6-2.4,0.9-4.5,0.9-6.4c0.4-0.5,1.1-1,1.9-1.5c0.9-0.5,1.8-0.7,2.8-0.7
			c2.1,0,3.2,0.9,3.2,2.7c0,0.7-0.1,1.8-0.4,3.2c-0.3,1.4-0.7,3-1.1,4.8c1.6-2.1,3.3-4.1,5.2-6s3.8-3.4,5.8-4.6s4.1-1.8,6.1-1.8
			c2.6,0,4.5,0.9,5.7,2.6s1.9,3.7,1.9,5.8c0,1.8-0.3,3.5-0.9,5.1s-1.2,3-1.8,4.4s-0.9,2.7-0.9,4.1c0,1,0.2,1.6,0.7,2s1,0.6,1.5,0.6
			c1.5,0,3-0.7,4.5-2.1c1.6-1.4,3.1-3.2,4.5-5.3c1.4-2.1,2.7-4.3,3.8-6.5l1.5,1.3c-1.3,3-2.7,5.7-4.3,8.1s-3.4,4.4-5.3,5.9
			C173.2,115.7,171,116.5,168.6,116.5z"/>
		<path class="st5" d="M188.2,117.4c-2.7,0-4.6-0.8-6-2.4s-2-3.5-2-5.7c0-1.4,0.2-3.1,0.7-5.2s1.2-4.3,2-6.7c0.9-2.3,1.9-4.5,3-6.6
			s2.4-3.7,3.7-5s2.7-1.9,4-1.9c0.7,0,1.4,0.2,1.9,0.7s0.8,1.1,0.8,1.9s-0.5,2-1.4,3.5s-2,3.4-3.3,5.4c-1.2,2.1-2.3,4.2-3.3,6.4
			s-1.4,4.3-1.4,6.3c0,1.9,0.3,3.2,1,3.8c0.7,0.6,1.7,1,3,1c2.1,0,4.3-1,6.7-3.1s4.9-5.6,7.5-10.8l1.4,1.5
			c-2.1,5.3-4.8,9.4-8.1,12.4C195.4,115.9,191.9,117.4,188.2,117.4z M198.9,76.6c-1.1,0-2.2-0.3-3.1-0.9s-1.4-1.5-1.4-2.7
			c0-1.5,0.8-2.7,2.4-3.7c1.6-1,3.2-1.5,4.9-1.5c1.1,0,2,0.2,2.8,0.7s1.1,1.4,1.1,2.6c0,1.3-0.7,2.5-2.1,3.7
			C202,76,200.5,76.6,198.9,76.6z"/>
		<path class="st5" d="M225.7,122.5c-4.6,0-8.3-1.1-11.3-3.3c-2.9-2.2-5.1-5-6.4-8.4s-2-7-2-10.7c0-4.8,0.7-9.5,2.2-14.3
			s3.5-9.4,6-13.7c2.6-4.3,5.5-8.2,8.7-11.6c3.3-3.4,6.7-6.1,10.5-8s7.4-2.9,11.1-2.9c2.7,0,4.9,0.6,6.7,1.9
			c1.8,1.2,2.7,3.4,2.7,6.4c0,1.8-0.3,3.8-1,6.1c-0.6,2.2-1.5,4.4-2.5,6.5c-1.1,2.1-2.3,3.8-3.6,5.1c-1.3,1.3-2.7,2-4.1,2
			c-0.6,0-1.2-0.2-1.9-0.6s-1.3-1.1-1.8-2.2c0.9-1,1.9-2.3,3.1-3.8c1.1-1.5,2.2-3,3.3-4.7c1-1.7,1.9-3.3,2.5-4.9c0.7-1.6,1-3,1-4.2
			c0-1.1-0.3-1.9-0.9-2.6c-0.6-0.6-1.7-1-3.2-1c-2.7,0-5.4,1-8.2,3s-5.5,4.7-8.1,8s-4.9,7.1-7,11.2s-3.7,8.4-4.9,12.8
			s-1.8,8.5-1.8,12.5c0,2.9,0.4,5.7,1.3,8.3c0.9,2.6,2.3,4.8,4.2,6.4c1.9,1.7,4.5,2.5,7.6,2.5c3.3,0,6.5-0.9,9.7-2.7
			c3.2-1.8,6.2-4.2,8.9-7.2s4.8-6.1,6.5-9.5l2.4,1.5c-2.1,4-4.6,7.7-7.6,11.1s-6.3,6-10,8.1C233.9,121.5,229.9,122.5,225.7,122.5z"
			/>
		<path class="st5" d="M267.7,117c-2.2,0-4-0.6-5.4-1.8c-1.4-1.2-2.1-2.8-2.1-4.8c0-1.7,0.4-3.5,1.3-5.4c0.8-1.9,1.7-3.8,2.6-5.7
			c0.9-1.9,1.3-3.5,1.3-5c0-1.4-0.5-2.5-1.4-3.5c-0.9-0.9-2-1.7-3.2-2.3c-1.3,3.3-2.8,6.5-4.5,9.6c-1.7,3.1-3,5.5-4,7.3l-1.4-2.6
			c0.8-1.6,2-3.8,3.3-6.7c1.4-2.9,2.7-6.1,4-9.7c-0.6-0.6-0.9-1.4-0.9-2.4c0-1.6,0.5-3,1.5-4.4s1.9-2.1,2.8-2.1
			c0.7,0,1.3,0.4,1.6,1.2s0.5,1.4,0.5,1.7c0,0.3-0.1,0.8-0.4,1.6c-0.3,0.8-0.5,1.4-0.6,1.7c0.1,0.7,0.6,1.3,1.6,1.9s2.1,1.4,3.4,2.2
			c1.3,0.8,2.4,1.9,3.3,3.2c1,1.3,1.5,2.9,1.5,4.8c0,1.8-0.4,3.5-1.2,5.3c-0.8,1.8-1.6,3.5-2.4,5.1s-1.2,2.9-1.2,4.1
			c0,0.8,0.2,1.4,0.7,1.7c0.5,0.3,1,0.4,1.6,0.4c1.5,0,3-0.4,4.5-1.3c1.6-0.9,3.1-2,4.6-3.4s2.8-2.9,4-4.4c1.1-1.5,2-2.9,2.6-4.2
			l2.2,1.6c-1.1,2.6-2.8,5.1-5,7.7c-2.2,2.5-4.6,4.6-7.2,6.2C273.1,116.2,270.5,117,267.7,117z"/>
		<path class="st5" d="M288.9,118.9c-2,0-3.7-0.7-5.2-2s-2.2-3.3-2.2-6c0-2.1,0.5-4.4,1.5-6.9s2.3-4.9,4-7.3s3.6-4.6,5.8-6.6
			c2.2-2,4.5-3.5,7-4.8c2.5-1.2,4.9-1.8,7.4-1.8c2.6,0,4.8,0.7,6.6,2c1.8,1.3,2.7,3.1,2.7,5.2c0,1.6-0.6,2.8-1.7,3.5
			s-2.5,0.9-4.1,0.6c0.1-0.5,0.2-1.1,0.3-1.6c0.1-0.5,0.1-1.1,0.1-1.7c0-1.2-0.2-2.3-0.7-3.3s-1.5-1.5-3.1-1.5
			c-1.7,0-3.4,0.6-5.2,1.7s-3.4,2.6-5,4.5c-1.6,1.8-3,3.9-4.3,6.1s-2.3,4.4-3,6.5s-1.1,4-1.1,5.7c0,1.9,0.7,2.9,2.1,2.9
			s2.9-0.7,4.6-2c1.7-1.4,3.4-3.1,5.1-5.1c1.7-2.1,3.4-4.1,4.9-6.3s2.9-4,4.1-5.5c0.2-0.3,0.4-0.5,0.7-0.5c0.2,0.1,0.7,0.2,1.4,0.4
			c0.7,0.2,1.3,0.5,1.9,1c0.6,0.4,0.9,1,0.9,1.6s-0.3,1.4-0.8,2.3s-1.1,2-1.8,3.1c-0.7,1.1-1.3,2.2-1.8,3.3
			c-0.5,1.1-0.8,2.2-0.8,3.2c0,0.8,0.2,1.5,0.6,2.2s1.1,1,2.1,1c1.5,0,3.5-1.1,6.1-3.2s5.3-5.8,8-10.9l1.7,1.7
			c-1.5,3.3-3.2,6.1-5.2,8.6s-4.1,4.5-6.4,5.9c-2.2,1.4-4.5,2.1-6.8,2.1c-2.5,0-4.3-0.8-5.5-2.4s-1.9-3.3-2-5.1c0-0.1,0-0.2,0-0.3
			c0-0.1,0-0.1,0-0.2c-2.4,2.9-4.6,5.2-6.7,6.9C293.4,118.1,291.2,118.9,288.9,118.9z"/>
		<path class="st5" d="M324,140c-0.7,0-1.5-0.2-2.4-0.6s-1.8-1.3-2.4-2.5c-0.7-1.2-1-3.1-1-5.6c0-2.6,0.4-6,1.3-10.2
			s2.1-8.8,3.6-13.9s3.3-10.3,5.4-15.7c2.1-5.4,4.3-10.5,6.7-15.5c2.4-5,4.9-9.5,7.4-13.4c2.6-4,5.1-7.2,7.7-9.5
			c2.5-2.4,5-3.5,7.3-3.5c1.6,0,2.6,0.5,3.1,1.4s0.7,2,0.7,3.2c0,2.6-0.7,5.4-2.1,8.5s-3.3,6.2-5.7,9.3c-2.4,3.1-5,6.1-7.9,8.8
			c-2.9,2.8-5.9,5.2-9,7.2c-0.2,0.6-0.5,1.2-0.7,1.8c-0.2,0.6-0.5,1.2-0.7,1.8c0.7,0.2,1.2,0.7,1.6,1.3c0.4,0.6,0.6,1.2,0.7,1.9
			c0.5,2.6,1,4.9,1.5,6.9s1.2,3.6,2.2,4.8c1,1.1,2.4,1.7,4.3,1.7c2.1,0,4-0.8,5.6-2.4s3.3-3.8,5-6.6l2,1.5c-1.9,3.9-4.1,6.7-6.5,8.5
			s-4.6,2.7-6.5,2.7c-1,0-2.1-0.2-3.2-0.6s-2.2-1-3.2-1.8c-0.1,3.7-0.5,7.4-1.3,11.1c-0.8,3.6-1.9,7-3.3,9.9s-2.9,5.3-4.7,7.1
			C327.5,139.1,325.8,140,324,140z M326.5,134.4c0.7,0,1.4-0.6,2.1-1.7c0.8-1.1,1.5-2.7,2.2-4.5c0.7-1.9,1.4-3.9,2-6.2
			c0.6-2.3,1.1-4.5,1.5-6.7s0.5-4.2,0.5-6s-0.2-3.3-0.6-4.7c-0.4-1.4-1.1-2.9-2-4.6c-1.4,4.2-2.6,8.2-3.7,12
			c-1.1,3.9-1.9,7.4-2.5,10.5c-0.6,3.2-0.9,5.8-0.9,7.9C325,133.1,325.5,134.4,326.5,134.4z M339.3,81.5c3.7-3.4,6.8-6.8,9.4-10
			c2.6-3.3,4.6-6.1,5.9-8.6c1.4-2.5,2-4.3,2-5.3c0-0.5-0.2-0.7-0.7-0.7c-1.5,0-3.1,1.1-5,3.3c-1.9,2.2-3.8,5.2-5.8,8.9
			C343.1,72.8,341.2,77,339.3,81.5z"/>
		<path class="st5" d="M362.2,118.8c-2.7,0-4.8-0.8-6.4-2.4s-2.4-3.9-2.4-7.2c0-2.5,0.5-5.6,1.4-9.2s2.1-7.5,3.6-11.4
			c-0.4-0.1-0.9-0.2-1.5-0.3c-0.6-0.1-1.1-0.3-1.7-0.5V85c1,0.1,1.8,0.2,2.4,0.3c0.6,0.1,1.3,0.1,1.9,0.2c1.3-3.2,2.6-6.3,4.1-9.3
			s3-5.7,4.4-8c1.5-2.4,2.9-4.2,4.2-5.6c1.3-1.4,2.5-2,3.5-2c0.6,0,1.2,0.2,1.7,0.7s0.8,1.1,0.8,2c0,1.2-0.6,2.9-1.9,5.2
			c-1.2,2.2-2.8,4.8-4.6,7.8c-1.8,3-3.6,6.2-5.2,9.5c0.5,0,1,0,1.5,0s0.9,0,1.4,0c2.7,0,5.1,0,7.2-0.1s4.3-0.3,6.6-0.5v3
			c-3.3,0.3-6.4,0.5-9.1,0.7c-2.8,0.2-5.4,0.3-8,0.4c-0.2,0-0.4,0-0.5,0c-0.2,0-0.4,0-0.5,0c-1.3,3-2.4,6-3.3,9.1s-1.4,6.1-1.4,9.1
			c0,2.5,0.4,4.2,1.2,5.2c0.8,1,2,1.5,3.7,1.5c3,0,6.1-1.4,9.3-4.1c3.2-2.7,5.9-6.5,8.3-11.2l1.3,0.9c-1.6,3.6-3.5,6.8-5.8,9.7
			s-4.8,5.2-7.6,6.8C367.9,118,365.1,118.8,362.2,118.8z"/>
	</g>
	<g>
		<path class="st6" d="M140.1,151c0,0.2-0.1,0.3-0.2,0.4c-0.1,0.1-0.3,0.1-0.4,0.1H134c0,0.3,0,0.7,0.1,0.9c0.1,0.3,0.2,0.5,0.5,0.7
			c0.2,0.2,0.5,0.4,0.8,0.5s0.8,0.2,1.3,0.2c0.4,0,0.7,0,1.1-0.1c0.3,0,0.6-0.1,0.8-0.2s0.4-0.1,0.6-0.2c0.1,0,0.3-0.1,0.3-0.1h0.1
			c0,0,0.1,0,0.1,0.1v0.1c0,0.1,0,0.1,0,0.2s0,0.1,0,0.2v0.1v0.1c0,0,0,0.1-0.1,0.1c0,0-0.1,0.1-0.3,0.1c-0.2,0.1-0.4,0.1-0.6,0.2
			c-0.3,0.1-0.6,0.1-0.9,0.2c-0.3,0-0.7,0.1-1.1,0.1c-0.7,0-1.3-0.1-1.8-0.2s-0.9-0.4-1.3-0.6c-0.3-0.3-0.6-0.6-0.8-1.1
			c-0.2-0.4-0.3-0.9-0.3-1.5c0-0.5,0.1-1,0.3-1.5c0.2-0.4,0.5-0.8,0.8-1.1c0.3-0.3,0.8-0.5,1.3-0.7s1-0.2,1.6-0.2
			c0.7,0,1.2,0.1,1.7,0.2c0.5,0.2,0.8,0.4,1.1,0.6c0.3,0.3,0.5,0.6,0.7,0.9c0.1,0.4,0.2,0.7,0.2,1.2L140.1,151L140.1,151z
			 M138.6,150.6c0-0.6-0.2-1.1-0.5-1.4c-0.4-0.3-0.9-0.5-1.7-0.5c-0.4,0-0.7,0.1-1,0.2s-0.5,0.2-0.7,0.4s-0.3,0.4-0.4,0.6
			c-0.1,0.2-0.2,0.5-0.2,0.7L138.6,150.6L138.6,150.6z"/>
		<path class="st6" d="M151.1,148.1L151.1,148.1c0,0.1,0,0.1,0,0.1s0,0,0,0.1v0.1l-2.8,6l-0.1,0.1c0,0-0.1,0.1-0.2,0.1
			c-0.1,0-0.2,0-0.3,0s-0.3,0-0.5,0s-0.3,0-0.5,0c-0.1,0-0.2,0-0.3,0s-0.1,0-0.2-0.1l-0.1-0.1l-2.8-6c0-0.1,0-0.1-0.1-0.1
			s0-0.1,0-0.1s0,0,0-0.1V148c0,0,0.1,0,0.1-0.1c0.1,0,0.1,0,0.2,0s0.2,0,0.4,0s0.3,0,0.4,0c0.1,0,0.2,0,0.2,0c0.1,0,0.1,0,0.1,0.1
			l0.1,0.1l2.3,5.2v0.1v-0.1l2.3-5.2c0,0,0-0.1,0.1-0.1c0,0,0.1,0,0.1-0.1c0.1,0,0.1,0,0.2,0c0.1,0,0.2,0,0.4,0c0.1,0,0.3,0,0.3,0
			h0.2C151,148,151.1,148,151.1,148.1C151.1,148,151.1,148.1,151.1,148.1z"/>
		<path class="st6" d="M161.8,151c0,0.2-0.1,0.3-0.2,0.4c-0.1,0.1-0.3,0.1-0.4,0.1h-5.5c0,0.3,0,0.7,0.1,0.9
			c0.1,0.3,0.2,0.5,0.5,0.7c0.2,0.2,0.5,0.4,0.8,0.5s0.8,0.2,1.3,0.2c0.4,0,0.7,0,1.1-0.1c0.3,0,0.6-0.1,0.8-0.2s0.4-0.1,0.6-0.2
			c0.1,0,0.3-0.1,0.3-0.1h0.1c0,0,0.1,0,0.1,0.1v0.1c0,0.1,0,0.1,0,0.2s0,0.1,0,0.2v0.1v0.1c0,0,0,0.1-0.1,0.1c0,0-0.1,0.1-0.3,0.1
			c-0.2,0.1-0.4,0.1-0.6,0.2c-0.3,0.1-0.6,0.1-0.9,0.2c-0.3,0-0.7,0.1-1.1,0.1c-0.7,0-1.3-0.1-1.8-0.2s-0.9-0.4-1.3-0.6
			c-0.3-0.3-0.6-0.6-0.8-1.1c-0.2-0.4-0.3-0.9-0.3-1.5c0-0.5,0.1-1,0.3-1.5c0.2-0.4,0.5-0.8,0.8-1.1c0.3-0.3,0.8-0.5,1.3-0.7
			s1-0.2,1.6-0.2c0.7,0,1.2,0.1,1.7,0.2c0.5,0.2,0.8,0.4,1.1,0.6c0.3,0.3,0.5,0.6,0.7,0.9c0.1,0.4,0.2,0.7,0.2,1.2L161.8,151
			L161.8,151z M160.3,150.6c0-0.6-0.2-1.1-0.5-1.4c-0.4-0.3-0.9-0.5-1.7-0.5c-0.4,0-0.7,0.1-1,0.2s-0.5,0.2-0.7,0.4
			c-0.2,0.2-0.3,0.4-0.4,0.6c-0.1,0.2-0.2,0.5-0.2,0.7L160.3,150.6L160.3,150.6z"/>
		<path class="st6" d="M170.9,148.5c0,0.1,0,0.2,0,0.3c0,0.1,0,0.1,0,0.2c0,0,0,0.1-0.1,0.1h-0.1c0,0-0.1,0-0.2,0
			c-0.1,0-0.2,0-0.2-0.1c-0.1,0-0.2,0-0.3-0.1c-0.1,0-0.2,0-0.4,0s-0.3,0-0.5,0.1c-0.2,0-0.3,0.1-0.5,0.2s-0.3,0.2-0.5,0.4
			s-0.4,0.4-0.6,0.7v4.1v0.1c0,0-0.1,0-0.1,0.1c-0.1,0-0.1,0-0.2,0c-0.1,0-0.2,0-0.4,0s-0.3,0-0.4,0c-0.1,0-0.2,0-0.2,0
			c-0.1,0-0.1,0-0.1-0.1v-0.1v-6.3V148c0,0,0.1,0,0.1-0.1c0.1,0,0.1,0,0.2,0c0.1,0,0.2,0,0.3,0s0.2,0,0.3,0s0.2,0,0.2,0
			s0.1,0,0.1,0.1v0.1v0.9c0.2-0.3,0.4-0.5,0.6-0.6c0.2-0.2,0.4-0.3,0.6-0.4c0.2-0.1,0.4-0.2,0.5-0.2c0.2,0,0.3-0.1,0.5-0.1
			c0.1,0,0.2,0,0.3,0s0.2,0,0.3,0s0.2,0,0.3,0.1c0.1,0,0.2,0,0.2,0.1c0,0,0.1,0,0.1,0.1c0,0,0,0,0,0.1v0.1
			C170.9,148.3,170.9,148.4,170.9,148.5z"/>
		<path class="st6" d="M178.3,154.6l-1.1,2.3c0,0.1-0.1,0.1-0.3,0.2c-0.2,0-0.4,0.1-0.7,0.1c-0.2,0-0.3,0-0.4,0
			c-0.1,0-0.2,0-0.2-0.1c-0.1,0-0.1-0.1-0.1-0.1s0-0.1,0-0.2l1.1-2.2c-0.1,0-0.1,0-0.2-0.1s-0.1-0.1-0.1-0.1l-3-6
			c0-0.1-0.1-0.2-0.1-0.2s0-0.1,0.1-0.1c0,0,0.1-0.1,0.2-0.1c0.1,0,0.3,0,0.4,0s0.3,0,0.4,0c0.1,0,0.2,0,0.2,0c0.1,0,0.1,0,0.1,0.1
			s0.1,0.1,0.1,0.1l2.4,5l0,0l2.3-5.1c0-0.1,0.1-0.1,0.1-0.2c0.1,0,0.1,0,0.2-0.1c0.1,0,0.3,0,0.5,0s0.3,0,0.4,0
			c0.1,0,0.2,0,0.2,0.1c0.1,0,0.1,0.1,0.1,0.1s0,0.1-0.1,0.2L178.3,154.6z"/>
		<path class="st6" d="M189.2,153.9c0,0.1,0,0.2,0,0.3c0,0.1-0.1,0.1-0.1,0.2c0,0-0.1,0.1-0.2,0.1c-0.1,0-0.2,0.1-0.3,0.1
			s-0.3,0-0.4,0.1c-0.1,0-0.3,0-0.4,0c-0.4,0-0.8,0-1.1-0.1s-0.6-0.2-0.8-0.4c-0.2-0.2-0.3-0.4-0.4-0.7c-0.1-0.3-0.1-0.6-0.1-0.9
			v-3.7h-1.2c-0.1,0-0.2,0-0.2-0.1c-0.1-0.1-0.1-0.2-0.1-0.4c0-0.1,0-0.2,0-0.2s0-0.1,0.1-0.2l0.1-0.1h0.1h1.1v-1.5v-0.1l0.1-0.1
			c0.1,0,0.1,0,0.2,0c0.1,0,0.2,0,0.4,0s0.3,0,0.4,0c0.1,0,0.2,0,0.2,0c0.1,0,0.1,0,0.1,0.1v0.1v1.5h2.1h0.1c0,0,0.1,0,0.1,0.1
			c0,0,0,0.1,0.1,0.2s0,0.1,0,0.2c0,0.2,0,0.3-0.1,0.4c0,0.1-0.1,0.1-0.2,0.1h-2.1v3.5c0,0.4,0.1,0.8,0.3,1s0.5,0.3,0.9,0.3
			c0.1,0,0.3,0,0.4,0c0.1,0,0.2,0,0.3-0.1c0.1,0,0.2,0,0.2-0.1c0.1,0,0.1,0,0.2,0h0.1c0,0,0,0,0.1,0.1v0.1
			C189.2,153.8,189.2,153.8,189.2,153.9z"/>
		<path class="st6" d="M200.2,154.4C200.2,154.4,200.2,154.5,200.2,154.4c-0.1,0.1-0.1,0.1-0.2,0.2c-0.1,0-0.1,0-0.2,0
			c-0.1,0-0.2,0-0.4,0s-0.3,0-0.4,0c-0.1,0-0.2,0-0.2,0c-0.1,0-0.1,0-0.1-0.1v-0.1v-3.7c0-0.4,0-0.6-0.1-0.9s-0.2-0.4-0.3-0.6
			s-0.3-0.3-0.5-0.4s-0.5-0.1-0.8-0.1c-0.4,0-0.8,0.1-1.1,0.3c-0.4,0.2-0.8,0.5-1.2,0.9v4.4v0.1c0,0-0.1,0-0.1,0.1
			c-0.1,0-0.1,0-0.2,0c-0.1,0-0.2,0-0.4,0s-0.3,0-0.4,0s-0.2,0-0.2,0c-0.1,0-0.1,0-0.1-0.1v-0.1V145v-0.1c0,0,0.1,0,0.1-0.1
			c0.1,0,0.1,0,0.2,0c0.1,0,0.2,0,0.4,0s0.3,0,0.4,0c0.1,0,0.2,0,0.2,0c0.1,0,0.1,0,0.1,0.1s0,0.1,0,0.1v3.8
			c0.4-0.3,0.9-0.6,1.3-0.8c0.4-0.2,0.9-0.3,1.3-0.3c0.6,0,1,0.1,1.4,0.2s0.7,0.3,0.9,0.6c0.2,0.2,0.4,0.5,0.5,0.8s0.2,0.7,0.2,1.1
			L200.2,154.4L200.2,154.4z"/>
		<path class="st6" d="M206.6,146c0,0.3-0.1,0.5-0.2,0.5s-0.4,0.1-0.7,0.1c-0.4,0-0.6,0-0.7-0.1c-0.1-0.1-0.2-0.3-0.2-0.5
			c0-0.3,0.1-0.5,0.2-0.5s0.4-0.1,0.7-0.1c0.4,0,0.6,0,0.7,0.1C206.5,145.5,206.6,145.7,206.6,146z M206.4,154.4
			C206.4,154.4,206.4,154.5,206.4,154.4c-0.1,0.1-0.1,0.1-0.2,0.2c-0.1,0-0.1,0-0.2,0c-0.1,0-0.2,0-0.4,0s-0.3,0-0.4,0
			c-0.1,0-0.2,0-0.2,0c-0.1,0-0.1,0-0.1-0.1v-0.1v-6.3V148c0,0,0.1,0,0.1-0.1c0.1,0,0.1,0,0.2,0c0.1,0,0.2,0,0.4,0s0.3,0,0.4,0
			c0.1,0,0.2,0,0.2,0c0.1,0,0.1,0,0.1,0.1v0.1L206.4,154.4L206.4,154.4z"/>
		<path class="st6" d="M218.3,154.4C218.3,154.4,218.2,154.5,218.3,154.4c-0.1,0.1-0.1,0.1-0.2,0.2c-0.1,0-0.1,0-0.2,0
			c-0.1,0-0.2,0-0.4,0s-0.3,0-0.4,0c-0.1,0-0.2,0-0.2,0c-0.1,0-0.1,0-0.1-0.1v-0.1v-3.7c0-0.4,0-0.6-0.1-0.9s-0.2-0.4-0.3-0.6
			s-0.3-0.3-0.5-0.4s-0.5-0.1-0.8-0.1c-0.4,0-0.8,0.1-1.1,0.3c-0.4,0.2-0.8,0.5-1.2,0.9v4.4v0.1c0,0-0.1,0-0.1,0.1
			c-0.1,0-0.1,0-0.2,0c-0.1,0-0.2,0-0.4,0s-0.3,0-0.4,0c-0.1,0-0.2,0-0.2,0c-0.1,0-0.1,0-0.1-0.1v-0.1V148v-0.1c0,0,0.1,0,0.1-0.1
			c0.1,0,0.1,0,0.2,0s0.2,0,0.3,0s0.2,0,0.3,0s0.2,0,0.2,0s0.1,0,0.1,0.1v0.1v0.8c0.5-0.4,0.9-0.7,1.4-0.9s0.9-0.3,1.4-0.3
			c0.6,0,1,0.1,1.4,0.2s0.7,0.3,0.9,0.6c0.2,0.2,0.4,0.5,0.5,0.8s0.2,0.7,0.2,1.1L218.3,154.4L218.3,154.4z"/>
		<path class="st6" d="M229.8,148.4c0,0.2,0,0.3-0.1,0.3c-0.1,0.1-0.1,0.1-0.2,0.1h-1.2c0.2,0.2,0.4,0.3,0.5,0.6
			c0.1,0.2,0.1,0.4,0.1,0.6c0,0.4-0.1,0.7-0.2,1c-0.2,0.3-0.4,0.5-0.7,0.7s-0.6,0.3-1,0.4s-0.8,0.2-1.3,0.2c-0.3,0-0.7,0-1-0.1
			s-0.5-0.2-0.7-0.3c-0.1,0.1-0.2,0.2-0.3,0.3c-0.1,0.1-0.1,0.2-0.1,0.4c0,0.2,0.1,0.3,0.3,0.4s0.5,0.2,0.8,0.2l2.2,0.1
			c0.4,0,0.8,0.1,1.1,0.1c0.3,0.1,0.6,0.2,0.9,0.3s0.5,0.3,0.6,0.5s0.2,0.4,0.2,0.7c0,0.3-0.1,0.6-0.2,0.8c-0.2,0.3-0.4,0.5-0.7,0.7
			s-0.7,0.3-1.3,0.5c-0.5,0.1-1.1,0.2-1.8,0.2s-1.2,0-1.7-0.1s-0.9-0.2-1.2-0.3c-0.3-0.2-0.5-0.3-0.7-0.5c-0.1-0.2-0.2-0.4-0.2-0.7
			c0-0.2,0-0.3,0.1-0.4c0-0.1,0.1-0.3,0.2-0.4c0.1-0.1,0.2-0.3,0.4-0.4s0.3-0.2,0.5-0.3c-0.3-0.1-0.5-0.3-0.7-0.4
			c-0.1-0.2-0.2-0.4-0.2-0.6c0-0.3,0.1-0.5,0.2-0.8c0.2-0.2,0.3-0.4,0.6-0.6c-0.2-0.2-0.3-0.4-0.5-0.6c-0.1-0.2-0.2-0.5-0.2-0.8
			c0-0.4,0.1-0.7,0.2-1c0.2-0.3,0.4-0.5,0.7-0.7s0.6-0.3,1-0.5c0.4-0.1,0.8-0.2,1.3-0.2c0.3,0,0.5,0,0.7,0s0.4,0,0.6,0.1h2.5
			c0.1,0,0.2,0,0.2,0.1C229.8,148.1,229.8,148.2,229.8,148.4z M228.2,155c0-0.3-0.1-0.5-0.4-0.6c-0.3-0.1-0.7-0.2-1.2-0.2l-2.1-0.1
			c-0.2,0.1-0.4,0.2-0.5,0.3c-0.1,0.1-0.2,0.2-0.3,0.3c-0.1,0.1-0.1,0.2-0.2,0.3c0,0.1,0,0.2,0,0.3c0,0.3,0.2,0.5,0.6,0.7
			c0.4,0.2,1,0.2,1.7,0.2c0.5,0,0.8,0,1.2-0.1c0.3-0.1,0.6-0.2,0.8-0.3c0.2-0.1,0.3-0.2,0.4-0.4S228.2,155.2,228.2,155z
			 M227.5,150.1c0-0.4-0.2-0.8-0.5-1s-0.8-0.4-1.3-0.4c-0.3,0-0.6,0-0.8,0.1s-0.4,0.2-0.5,0.3c-0.1,0.1-0.3,0.3-0.3,0.5
			c-0.1,0.2-0.1,0.3-0.1,0.5c0,0.4,0.2,0.7,0.5,1c0.3,0.2,0.7,0.4,1.3,0.4c0.3,0,0.6,0,0.8-0.1s0.4-0.2,0.5-0.3
			c0.1-0.1,0.3-0.3,0.3-0.4C227.4,150.4,227.5,150.2,227.5,150.1z"/>
		<path class="st6" d="M241.5,146c0,0.3-0.1,0.5-0.2,0.5c-0.1,0.1-0.4,0.1-0.7,0.1c-0.4,0-0.6,0-0.7-0.1c-0.1-0.1-0.2-0.3-0.2-0.5
			c0-0.3,0.1-0.5,0.2-0.5s0.4-0.1,0.7-0.1c0.4,0,0.6,0,0.7,0.1C241.5,145.5,241.5,145.7,241.5,146z M241.3,154.4
			C241.3,154.4,241.3,154.5,241.3,154.4c-0.1,0.1-0.1,0.1-0.2,0.2c-0.1,0-0.1,0-0.2,0c-0.1,0-0.2,0-0.4,0s-0.3,0-0.4,0
			c-0.1,0-0.2,0-0.2,0c-0.1,0-0.1,0-0.1-0.1v-0.1v-6.3V148c0,0,0.1,0,0.1-0.1c0.1,0,0.1,0,0.2,0c0.1,0,0.2,0,0.4,0s0.3,0,0.4,0
			c0.1,0,0.2,0,0.2,0c0.1,0,0.1,0,0.1,0.1v0.1L241.3,154.4L241.3,154.4z"/>
		<path class="st6" d="M251.3,152.7c0,0.3-0.1,0.6-0.2,0.9c-0.2,0.3-0.4,0.5-0.7,0.6s-0.6,0.3-1,0.4s-0.8,0.1-1.3,0.1
			c-0.3,0-0.6,0-0.8-0.1c-0.3,0-0.5-0.1-0.7-0.1c-0.2-0.1-0.4-0.1-0.5-0.2c-0.2-0.1-0.3-0.1-0.3-0.2s-0.1-0.1-0.2-0.2s0-0.2,0-0.3
			c0-0.1,0-0.2,0-0.2c0-0.1,0-0.1,0-0.1s0-0.1,0.1-0.1h0.1c0.1,0,0.2,0,0.3,0.1s0.3,0.1,0.5,0.2s0.4,0.1,0.7,0.2s0.6,0.1,0.9,0.1
			c0.3,0,0.5,0,0.7-0.1c0.2,0,0.4-0.1,0.5-0.2c0.2-0.1,0.3-0.2,0.4-0.3c0.1-0.1,0.1-0.3,0.1-0.4c0-0.2-0.1-0.3-0.2-0.4
			c-0.1-0.1-0.3-0.2-0.5-0.3c-0.2-0.1-0.4-0.2-0.7-0.2c-0.2-0.1-0.5-0.2-0.8-0.2s-0.5-0.2-0.8-0.3s-0.5-0.2-0.7-0.4
			s-0.4-0.3-0.5-0.5s-0.2-0.4-0.2-0.7c0-0.2,0.1-0.5,0.2-0.7c0.1-0.2,0.3-0.4,0.6-0.6s0.6-0.3,0.9-0.4c0.4-0.1,0.8-0.2,1.3-0.2
			c0.2,0,0.4,0,0.7,0c0.2,0,0.4,0.1,0.6,0.1c0.2,0,0.3,0.1,0.5,0.1c0.1,0,0.2,0.1,0.3,0.1s0.1,0.1,0.1,0.1v0.1v0.1c0,0,0,0.1,0,0.2
			s0,0.2,0,0.2c0,0.1,0,0.1,0,0.1s0,0.1-0.1,0.1s-0.1,0-0.1,0c-0.1,0-0.1,0-0.2-0.1c-0.1-0.1-0.2-0.1-0.4-0.2s-0.4-0.1-0.6-0.2
			c-0.2,0-0.5-0.1-0.8-0.1s-0.5,0-0.7,0.1c-0.2,0-0.4,0.1-0.5,0.2s-0.2,0.2-0.3,0.3c-0.1,0.1-0.1,0.2-0.1,0.4c0,0.2,0.1,0.3,0.2,0.5
			c0.1,0.1,0.3,0.2,0.5,0.3c0.2,0.1,0.4,0.2,0.7,0.3c0.3,0.1,0.5,0.2,0.8,0.2c0.3,0.1,0.5,0.2,0.8,0.3c0.3,0.1,0.5,0.2,0.7,0.4
			c0.2,0.1,0.4,0.3,0.5,0.5C251.2,152.2,251.3,152.4,251.3,152.7z"/>
		<path class="st6" d="M268.6,154.4C268.6,154.4,268.5,154.5,268.6,154.4c-0.1,0.1-0.1,0.1-0.2,0.2c-0.1,0-0.1,0-0.2,0s-0.2,0-0.3,0
			c-0.1,0-0.3,0-0.3,0h-0.2c-0.1,0-0.1,0-0.1-0.1v-0.1v-0.8c-0.5,0.4-0.9,0.7-1.4,0.9c-0.5,0.2-0.9,0.3-1.4,0.3
			c-0.6,0-1-0.1-1.4-0.2s-0.7-0.3-0.9-0.6c-0.2-0.2-0.4-0.5-0.5-0.8s-0.2-0.7-0.2-1.2v-3.8v-0.1c0,0,0.1,0,0.1-0.1
			c0.1,0,0.1,0,0.2,0s0.2,0,0.4,0c0.1,0,0.3,0,0.4,0s0.2,0,0.2,0c0.1,0,0.1,0,0.1,0.1v0.1v3.7c0,0.4,0,0.7,0.1,0.9
			c0.1,0.2,0.2,0.4,0.3,0.6c0.1,0.2,0.3,0.3,0.5,0.4s0.5,0.1,0.8,0.1c0.4,0,0.8-0.1,1.1-0.3c0.4-0.2,0.8-0.5,1.2-0.9v-4.4v-0.1
			c0,0,0.1,0,0.1-0.1c0.1,0,0.1,0,0.2,0s0.2,0,0.4,0c0.2,0,0.3,0,0.4,0s0.2,0,0.2,0c0.1,0,0.1,0,0.1,0.1v0.1L268.6,154.4
			L268.6,154.4z"/>
		<path class="st6" d="M280.4,154.4C280.4,154.4,280.4,154.5,280.4,154.4c-0.1,0.1-0.1,0.1-0.2,0.2c-0.1,0-0.1,0-0.2,0s-0.2,0-0.4,0
			c-0.2,0-0.3,0-0.4,0s-0.2,0-0.2,0c-0.1,0-0.1,0-0.1-0.1v-0.1v-3.7c0-0.4,0-0.6-0.1-0.9c-0.1-0.2-0.2-0.4-0.3-0.6
			c-0.1-0.2-0.3-0.3-0.5-0.4s-0.5-0.1-0.8-0.1c-0.4,0-0.8,0.1-1.1,0.3c-0.4,0.2-0.8,0.5-1.2,0.9v4.4v0.1c0,0-0.1,0-0.1,0.1
			c-0.1,0-0.1,0-0.2,0s-0.2,0-0.4,0c-0.2,0-0.3,0-0.4,0s-0.2,0-0.2,0c-0.1,0-0.1,0-0.1-0.1v-0.1V148v-0.1c0,0,0.1,0,0.1-0.1
			c0.1,0,0.1,0,0.2,0s0.2,0,0.3,0c0.1,0,0.2,0,0.3,0c0.1,0,0.2,0,0.2,0s0.1,0,0.1,0.1v0.1v0.8c0.5-0.4,0.9-0.7,1.4-0.9
			c0.5-0.2,0.9-0.3,1.4-0.3c0.6,0,1,0.1,1.4,0.2s0.7,0.3,0.9,0.6c0.2,0.2,0.4,0.5,0.5,0.8s0.2,0.7,0.2,1.1L280.4,154.4L280.4,154.4z
			"/>
		<path class="st6" d="M286.7,146c0,0.3-0.1,0.5-0.2,0.5s-0.4,0.1-0.7,0.1c-0.4,0-0.6,0-0.7-0.1s-0.2-0.3-0.2-0.5
			c0-0.3,0.1-0.5,0.2-0.5s0.4-0.1,0.7-0.1c0.4,0,0.6,0,0.7,0.1C286.7,145.5,286.7,145.7,286.7,146z M286.6,154.4
			C286.6,154.4,286.6,154.5,286.6,154.4c-0.1,0.1-0.1,0.1-0.2,0.2c-0.1,0-0.1,0-0.2,0s-0.2,0-0.4,0c-0.2,0-0.3,0-0.4,0s-0.2,0-0.2,0
			c-0.1,0-0.1,0-0.1-0.1v-0.1v-6.3V148c0,0,0.1,0,0.1-0.1c0.1,0,0.1,0,0.2,0s0.2,0,0.4,0c0.2,0,0.3,0,0.4,0s0.2,0,0.2,0
			c0.1,0,0.1,0,0.1,0.1v0.1v6.3H286.6z"/>
		<path class="st6" d="M298.4,156.9C298.4,156.9,298.3,156.9,298.4,156.9c-0.1,0.1-0.1,0.1-0.2,0.2c-0.1,0-0.1,0-0.2,0s-0.2,0-0.4,0
			c-0.2,0-0.3,0-0.4,0s-0.2,0-0.2,0c-0.1,0-0.1,0-0.1-0.1v-0.1v-3.2c-0.3,0.2-0.5,0.3-0.7,0.5c-0.2,0.1-0.5,0.2-0.7,0.3
			c-0.2,0.1-0.4,0.1-0.7,0.2c-0.2,0-0.5,0.1-0.7,0.1c-0.6,0-1.1-0.1-1.5-0.3c-0.4-0.2-0.8-0.4-1-0.7c-0.3-0.3-0.5-0.7-0.6-1.1
			s-0.2-0.8-0.2-1.3s0.1-1,0.2-1.5c0.2-0.4,0.4-0.8,0.7-1.1c0.3-0.3,0.7-0.5,1.1-0.7s1-0.2,1.5-0.2c0.2,0,0.5,0,0.7,0.1
			c0.2,0,0.4,0.1,0.6,0.2s0.4,0.2,0.6,0.3c0.2,0.1,0.5,0.3,0.7,0.5v-0.8v-0.1c0,0,0.1,0,0.1-0.1c0.1,0,0.1,0,0.2,0s0.2,0,0.3,0
			c0.1,0,0.2,0,0.3,0c0.1,0,0.2,0,0.2,0s0.1,0,0.1,0.1v0.1L298.4,156.9L298.4,156.9z M296.8,150c-0.4-0.4-0.8-0.7-1.2-0.9
			c-0.4-0.2-0.8-0.3-1.2-0.3c-0.4,0-0.7,0.1-1,0.2s-0.5,0.3-0.7,0.5s-0.3,0.5-0.4,0.8s-0.1,0.6-0.1,0.9s0,0.6,0.1,0.9
			s0.2,0.6,0.3,0.8c0.2,0.2,0.4,0.4,0.6,0.6s0.6,0.2,1,0.2c0.2,0,0.4,0,0.6-0.1c0.2,0,0.4-0.1,0.6-0.2s0.4-0.2,0.6-0.4
			c0.2-0.2,0.4-0.3,0.7-0.6L296.8,150L296.8,150z"/>
		<path class="st6" d="M310.2,154.4C310.2,154.4,310.1,154.5,310.2,154.4c-0.1,0.1-0.1,0.1-0.2,0.2c-0.1,0-0.1,0-0.2,0s-0.2,0-0.3,0
			c-0.1,0-0.3,0-0.3,0H309c-0.1,0-0.1,0-0.1-0.1v-0.1v-0.8c-0.5,0.4-0.9,0.7-1.4,0.9s-0.9,0.3-1.4,0.3c-0.6,0-1-0.1-1.4-0.2
			s-0.7-0.3-0.9-0.6c-0.2-0.2-0.4-0.5-0.5-0.8s-0.2-0.7-0.2-1.2v-3.8v-0.1c0,0,0.1,0,0.1-0.1c0.1,0,0.1,0,0.2,0s0.2,0,0.4,0
			c0.1,0,0.3,0,0.4,0s0.2,0,0.2,0c0.1,0,0.1,0,0.1,0.1v0.1v3.7c0,0.4,0,0.7,0.1,0.9c0.1,0.2,0.2,0.4,0.3,0.6
			c0.1,0.2,0.3,0.3,0.5,0.4s0.5,0.1,0.8,0.1c0.4,0,0.8-0.1,1.1-0.3c0.4-0.2,0.8-0.5,1.2-0.9v-4.4v-0.1c0,0,0.1,0,0.1-0.1
			c0.1,0,0.1,0,0.2,0s0.2,0,0.4,0c0.2,0,0.3,0,0.4,0s0.2,0,0.2,0c0.1,0,0.1,0,0.1,0.1v0.1L310.2,154.4L310.2,154.4z"/>
		<path class="st6" d="M321.9,151c0,0.2-0.1,0.3-0.2,0.4s-0.3,0.1-0.4,0.1h-5.5c0,0.3,0,0.7,0.1,0.9c0.1,0.3,0.2,0.5,0.5,0.7
			c0.2,0.2,0.5,0.4,0.8,0.5s0.8,0.2,1.3,0.2c0.4,0,0.7,0,1.1-0.1s0.6-0.1,0.8-0.2c0.2-0.1,0.4-0.1,0.6-0.2c0.1,0,0.3-0.1,0.3-0.1
			h0.1c0,0,0.1,0,0.1,0.1v0.1c0,0,0,0.1,0,0.2s0,0.1,0,0.2s0,0.1,0,0.1v0.1c0,0,0,0.1-0.1,0.1c0,0-0.1,0.1-0.3,0.1
			c-0.2,0.1-0.4,0.1-0.6,0.2c-0.3,0.1-0.6,0.1-0.9,0.2c-0.3,0-0.7,0.1-1.1,0.1c-0.7,0-1.3-0.1-1.8-0.2s-0.9-0.4-1.3-0.6
			c-0.3-0.3-0.6-0.6-0.8-1.1c-0.2-0.4-0.3-0.9-0.3-1.5c0-0.5,0.1-1,0.3-1.5c0.2-0.4,0.5-0.8,0.8-1.1c0.3-0.3,0.8-0.5,1.3-0.7
			s1-0.2,1.6-0.2c0.7,0,1.2,0.1,1.7,0.2c0.5,0.2,0.8,0.4,1.1,0.6c0.3,0.3,0.5,0.6,0.7,0.9c0.1,0.4,0.2,0.7,0.2,1.2L321.9,151
			L321.9,151z M320.4,150.6c0-0.6-0.2-1.1-0.5-1.4c-0.4-0.3-0.9-0.5-1.7-0.5c-0.4,0-0.7,0.1-1,0.2s-0.5,0.2-0.7,0.4
			s-0.3,0.4-0.4,0.6s-0.2,0.5-0.2,0.7L320.4,150.6L320.4,150.6z"/>
	</g>
</g>
</svg>
